G04 #@! TF.FileFunction,Legend,Top*
%FSLAX46Y46*%
G04 Gerber Fmt 4.6, Leading zero omitted, Abs format (unit mm)*
G04 Created by KiCad (PCBNEW 4.0.6) date 03/04/18 21:13:50*
%MOMM*%
%LPD*%
G01*
G04 APERTURE LIST*
%ADD10C,0.100000*%
%ADD11C,0.200000*%
%ADD12C,0.150000*%
%ADD13C,0.120000*%
G04 APERTURE END LIST*
D10*
D11*
X139192000Y-84328000D02*
G75*
G03X137668000Y-84836000I-508000J-1016000D01*
G01*
X143256000Y-85344000D02*
G75*
G03X141732000Y-84836000I-1016000J-508000D01*
G01*
X139192000Y-88900000D02*
X139192000Y-86868000D01*
X142240000Y-84836000D02*
X142240000Y-85344000D01*
X142240000Y-88900000D02*
X142240000Y-86360000D01*
X138684000Y-90932000D02*
X138684000Y-85852000D01*
X138684000Y-84328000D02*
X138684000Y-84836000D01*
X141224000Y-85852000D02*
G75*
G03X143256000Y-85852000I1016000J1016000D01*
G01*
X143256000Y-85852000D02*
G75*
G03X141224000Y-85852000I-1016000J-1016000D01*
G01*
X141732000Y-85852000D02*
G75*
G03X142748000Y-85852000I508000J508000D01*
G01*
X142748000Y-85852000D02*
G75*
G03X141732000Y-85852000I-508000J-508000D01*
G01*
X139700000Y-85344000D02*
G75*
G03X137668000Y-85344000I-1016000J-1016000D01*
G01*
X137668000Y-85344000D02*
G75*
G03X139700000Y-85344000I1016000J1016000D01*
G01*
X139192000Y-85344000D02*
G75*
G03X138176000Y-85344000I-508000J-508000D01*
G01*
X138176000Y-85344000D02*
G75*
G03X139192000Y-85344000I508000J508000D01*
G01*
X143256000Y-87376000D02*
G75*
G03X142748000Y-87884000I0J-508000D01*
G01*
X142748000Y-90424000D02*
X142748000Y-87884000D01*
X140716000Y-92456000D02*
X140208000Y-92456000D01*
X140716000Y-92456000D02*
G75*
G03X142748000Y-90424000I0J2032000D01*
G01*
X138684000Y-90932000D02*
G75*
G03X140208000Y-92456000I1524000J0D01*
G01*
X142240000Y-84836000D02*
G75*
G03X140208000Y-82804000I-2032000J0D01*
G01*
X140208000Y-82804000D02*
G75*
G03X138684000Y-84328000I0J-1524000D01*
G01*
X140716000Y-90424000D02*
G75*
G03X142240000Y-88900000I0J1524000D01*
G01*
X139192000Y-88900000D02*
G75*
G03X140716000Y-90424000I1524000J0D01*
G01*
D12*
X157036000Y-92066714D02*
X156997905Y-92104810D01*
X156883619Y-92142905D01*
X156807429Y-92142905D01*
X156693143Y-92104810D01*
X156616952Y-92028619D01*
X156578857Y-91952429D01*
X156540762Y-91800048D01*
X156540762Y-91685762D01*
X156578857Y-91533381D01*
X156616952Y-91457190D01*
X156693143Y-91381000D01*
X156807429Y-91342905D01*
X156883619Y-91342905D01*
X156997905Y-91381000D01*
X157036000Y-91419095D01*
X157759810Y-92142905D02*
X157378857Y-92142905D01*
X157378857Y-91342905D01*
X158178857Y-91342905D02*
X158331238Y-91342905D01*
X158407429Y-91381000D01*
X158483619Y-91457190D01*
X158521714Y-91609571D01*
X158521714Y-91876238D01*
X158483619Y-92028619D01*
X158407429Y-92104810D01*
X158331238Y-92142905D01*
X158178857Y-92142905D01*
X158102667Y-92104810D01*
X158026476Y-92028619D01*
X157988381Y-91876238D01*
X157988381Y-91609571D01*
X158026476Y-91457190D01*
X158102667Y-91381000D01*
X158178857Y-91342905D01*
X159321714Y-92066714D02*
X159283619Y-92104810D01*
X159169333Y-92142905D01*
X159093143Y-92142905D01*
X158978857Y-92104810D01*
X158902666Y-92028619D01*
X158864571Y-91952429D01*
X158826476Y-91800048D01*
X158826476Y-91685762D01*
X158864571Y-91533381D01*
X158902666Y-91457190D01*
X158978857Y-91381000D01*
X159093143Y-91342905D01*
X159169333Y-91342905D01*
X159283619Y-91381000D01*
X159321714Y-91419095D01*
X159664571Y-92142905D02*
X159664571Y-91342905D01*
X160121714Y-92142905D02*
X159778857Y-91685762D01*
X160121714Y-91342905D02*
X159664571Y-91800048D01*
X160388381Y-91342905D02*
X160578857Y-92142905D01*
X160731238Y-91571476D01*
X160883619Y-92142905D01*
X161074095Y-91342905D01*
X161378857Y-92142905D02*
X161378857Y-91342905D01*
X161721714Y-92104810D02*
X161836000Y-92142905D01*
X162026476Y-92142905D01*
X162102666Y-92104810D01*
X162140762Y-92066714D01*
X162178857Y-91990524D01*
X162178857Y-91914333D01*
X162140762Y-91838143D01*
X162102666Y-91800048D01*
X162026476Y-91761952D01*
X161874095Y-91723857D01*
X161797904Y-91685762D01*
X161759809Y-91647667D01*
X161721714Y-91571476D01*
X161721714Y-91495286D01*
X161759809Y-91419095D01*
X161797904Y-91381000D01*
X161874095Y-91342905D01*
X162064571Y-91342905D01*
X162178857Y-91381000D01*
X162521714Y-91723857D02*
X162788381Y-91723857D01*
X162902667Y-92142905D02*
X162521714Y-92142905D01*
X162521714Y-91342905D01*
X162902667Y-91342905D01*
X163855048Y-92142905D02*
X163855048Y-91342905D01*
X164236000Y-92142905D02*
X164236000Y-91342905D01*
X164693143Y-92142905D01*
X164693143Y-91342905D01*
X165531238Y-92066714D02*
X165493143Y-92104810D01*
X165378857Y-92142905D01*
X165302667Y-92142905D01*
X165188381Y-92104810D01*
X165112190Y-92028619D01*
X165074095Y-91952429D01*
X165036000Y-91800048D01*
X165036000Y-91685762D01*
X165074095Y-91533381D01*
X165112190Y-91457190D01*
X165188381Y-91381000D01*
X165302667Y-91342905D01*
X165378857Y-91342905D01*
X165493143Y-91381000D01*
X165531238Y-91419095D01*
X155055047Y-93416714D02*
X155016952Y-93454810D01*
X154902666Y-93492905D01*
X154826476Y-93492905D01*
X154712190Y-93454810D01*
X154635999Y-93378619D01*
X154597904Y-93302429D01*
X154559809Y-93150048D01*
X154559809Y-93035762D01*
X154597904Y-92883381D01*
X154635999Y-92807190D01*
X154712190Y-92731000D01*
X154826476Y-92692905D01*
X154902666Y-92692905D01*
X155016952Y-92731000D01*
X155055047Y-92769095D01*
X155397904Y-93492905D02*
X155397904Y-92692905D01*
X155855047Y-93492905D01*
X155855047Y-92692905D01*
X156121713Y-92692905D02*
X156578856Y-92692905D01*
X156350285Y-93492905D02*
X156350285Y-92692905D01*
X157302666Y-93492905D02*
X157035999Y-93111952D01*
X156845523Y-93492905D02*
X156845523Y-92692905D01*
X157150285Y-92692905D01*
X157226476Y-92731000D01*
X157264571Y-92769095D01*
X157302666Y-92845286D01*
X157302666Y-92959571D01*
X157264571Y-93035762D01*
X157226476Y-93073857D01*
X157150285Y-93111952D01*
X156845523Y-93111952D01*
X158712190Y-93416714D02*
X158674095Y-93454810D01*
X158559809Y-93492905D01*
X158483619Y-93492905D01*
X158369333Y-93454810D01*
X158293142Y-93378619D01*
X158255047Y-93302429D01*
X158216952Y-93150048D01*
X158216952Y-93035762D01*
X158255047Y-92883381D01*
X158293142Y-92807190D01*
X158369333Y-92731000D01*
X158483619Y-92692905D01*
X158559809Y-92692905D01*
X158674095Y-92731000D01*
X158712190Y-92769095D01*
X159436000Y-93492905D02*
X159055047Y-93492905D01*
X159055047Y-92692905D01*
X159855047Y-92692905D02*
X160007428Y-92692905D01*
X160083619Y-92731000D01*
X160159809Y-92807190D01*
X160197904Y-92959571D01*
X160197904Y-93226238D01*
X160159809Y-93378619D01*
X160083619Y-93454810D01*
X160007428Y-93492905D01*
X159855047Y-93492905D01*
X159778857Y-93454810D01*
X159702666Y-93378619D01*
X159664571Y-93226238D01*
X159664571Y-92959571D01*
X159702666Y-92807190D01*
X159778857Y-92731000D01*
X159855047Y-92692905D01*
X160997904Y-93416714D02*
X160959809Y-93454810D01*
X160845523Y-93492905D01*
X160769333Y-93492905D01*
X160655047Y-93454810D01*
X160578856Y-93378619D01*
X160540761Y-93302429D01*
X160502666Y-93150048D01*
X160502666Y-93035762D01*
X160540761Y-92883381D01*
X160578856Y-92807190D01*
X160655047Y-92731000D01*
X160769333Y-92692905D01*
X160845523Y-92692905D01*
X160959809Y-92731000D01*
X160997904Y-92769095D01*
X161340761Y-93492905D02*
X161340761Y-92692905D01*
X161797904Y-93492905D02*
X161455047Y-93035762D01*
X161797904Y-92692905D02*
X161340761Y-93150048D01*
X162064571Y-92692905D02*
X162255047Y-93492905D01*
X162407428Y-92921476D01*
X162559809Y-93492905D01*
X162750285Y-92692905D01*
X163055047Y-93492905D02*
X163055047Y-92692905D01*
X163397904Y-93454810D02*
X163512190Y-93492905D01*
X163702666Y-93492905D01*
X163778856Y-93454810D01*
X163816952Y-93416714D01*
X163855047Y-93340524D01*
X163855047Y-93264333D01*
X163816952Y-93188143D01*
X163778856Y-93150048D01*
X163702666Y-93111952D01*
X163550285Y-93073857D01*
X163474094Y-93035762D01*
X163435999Y-92997667D01*
X163397904Y-92921476D01*
X163397904Y-92845286D01*
X163435999Y-92769095D01*
X163474094Y-92731000D01*
X163550285Y-92692905D01*
X163740761Y-92692905D01*
X163855047Y-92731000D01*
X164197904Y-93073857D02*
X164464571Y-93073857D01*
X164578857Y-93492905D02*
X164197904Y-93492905D01*
X164197904Y-92692905D01*
X164578857Y-92692905D01*
X165531238Y-93492905D02*
X165531238Y-92692905D01*
X165721714Y-92692905D01*
X165836000Y-92731000D01*
X165912191Y-92807190D01*
X165950286Y-92883381D01*
X165988381Y-93035762D01*
X165988381Y-93150048D01*
X165950286Y-93302429D01*
X165912191Y-93378619D01*
X165836000Y-93454810D01*
X165721714Y-93492905D01*
X165531238Y-93492905D01*
X166331238Y-93073857D02*
X166597905Y-93073857D01*
X166712191Y-93492905D02*
X166331238Y-93492905D01*
X166331238Y-92692905D01*
X166712191Y-92692905D01*
X167512191Y-93416714D02*
X167474096Y-93454810D01*
X167359810Y-93492905D01*
X167283620Y-93492905D01*
X167169334Y-93454810D01*
X167093143Y-93378619D01*
X167055048Y-93302429D01*
X167016953Y-93150048D01*
X167016953Y-93035762D01*
X167055048Y-92883381D01*
X167093143Y-92807190D01*
X167169334Y-92731000D01*
X167283620Y-92692905D01*
X167359810Y-92692905D01*
X167474096Y-92731000D01*
X167512191Y-92769095D01*
X181197715Y-101052381D02*
X181007238Y-101052381D01*
X180912000Y-101100000D01*
X180864381Y-101147619D01*
X180769143Y-101290476D01*
X180721524Y-101480952D01*
X180721524Y-101861905D01*
X180769143Y-101957143D01*
X180816762Y-102004762D01*
X180912000Y-102052381D01*
X181102477Y-102052381D01*
X181197715Y-102004762D01*
X181245334Y-101957143D01*
X181292953Y-101861905D01*
X181292953Y-101623810D01*
X181245334Y-101528571D01*
X181197715Y-101480952D01*
X181102477Y-101433333D01*
X180912000Y-101433333D01*
X180816762Y-101480952D01*
X180769143Y-101528571D01*
X180721524Y-101623810D01*
X182435810Y-101004762D02*
X181578667Y-102290476D01*
X183292953Y-102052381D02*
X182721524Y-102052381D01*
X183007238Y-102052381D02*
X183007238Y-101052381D01*
X182912000Y-101195238D01*
X182816762Y-101290476D01*
X182721524Y-101338095D01*
X184245334Y-102052381D02*
X183673905Y-102052381D01*
X183959619Y-102052381D02*
X183959619Y-101052381D01*
X183864381Y-101195238D01*
X183769143Y-101290476D01*
X183673905Y-101338095D01*
X185388191Y-101004762D02*
X184531048Y-102290476D01*
X185673905Y-101147619D02*
X185721524Y-101100000D01*
X185816762Y-101052381D01*
X186054858Y-101052381D01*
X186150096Y-101100000D01*
X186197715Y-101147619D01*
X186245334Y-101242857D01*
X186245334Y-101338095D01*
X186197715Y-101480952D01*
X185626286Y-102052381D01*
X186245334Y-102052381D01*
X186864381Y-101052381D02*
X186959620Y-101052381D01*
X187054858Y-101100000D01*
X187102477Y-101147619D01*
X187150096Y-101242857D01*
X187197715Y-101433333D01*
X187197715Y-101671429D01*
X187150096Y-101861905D01*
X187102477Y-101957143D01*
X187054858Y-102004762D01*
X186959620Y-102052381D01*
X186864381Y-102052381D01*
X186769143Y-102004762D01*
X186721524Y-101957143D01*
X186673905Y-101861905D01*
X186626286Y-101671429D01*
X186626286Y-101433333D01*
X186673905Y-101242857D01*
X186721524Y-101147619D01*
X186769143Y-101100000D01*
X186864381Y-101052381D01*
X188150096Y-102052381D02*
X187578667Y-102052381D01*
X187864381Y-102052381D02*
X187864381Y-101052381D01*
X187769143Y-101195238D01*
X187673905Y-101290476D01*
X187578667Y-101338095D01*
X188483429Y-101052381D02*
X189150096Y-101052381D01*
X188721524Y-102052381D01*
X172205142Y-94639381D02*
X172538475Y-95639381D01*
X172871809Y-94639381D01*
X173633714Y-95639381D02*
X173633714Y-95115571D01*
X173586095Y-95020333D01*
X173490857Y-94972714D01*
X173300380Y-94972714D01*
X173205142Y-95020333D01*
X173633714Y-95591762D02*
X173538476Y-95639381D01*
X173300380Y-95639381D01*
X173205142Y-95591762D01*
X173157523Y-95496524D01*
X173157523Y-95401286D01*
X173205142Y-95306048D01*
X173300380Y-95258429D01*
X173538476Y-95258429D01*
X173633714Y-95210810D01*
X174109904Y-95639381D02*
X174109904Y-94972714D01*
X174109904Y-95163190D02*
X174157523Y-95067952D01*
X174205142Y-95020333D01*
X174300380Y-94972714D01*
X174395619Y-94972714D01*
X174728952Y-95639381D02*
X174728952Y-94972714D01*
X174728952Y-94639381D02*
X174681333Y-94687000D01*
X174728952Y-94734619D01*
X174776571Y-94687000D01*
X174728952Y-94639381D01*
X174728952Y-94734619D01*
X175633714Y-95639381D02*
X175633714Y-95115571D01*
X175586095Y-95020333D01*
X175490857Y-94972714D01*
X175300380Y-94972714D01*
X175205142Y-95020333D01*
X175633714Y-95591762D02*
X175538476Y-95639381D01*
X175300380Y-95639381D01*
X175205142Y-95591762D01*
X175157523Y-95496524D01*
X175157523Y-95401286D01*
X175205142Y-95306048D01*
X175300380Y-95258429D01*
X175538476Y-95258429D01*
X175633714Y-95210810D01*
X176109904Y-95639381D02*
X176109904Y-94639381D01*
X176109904Y-95020333D02*
X176205142Y-94972714D01*
X176395619Y-94972714D01*
X176490857Y-95020333D01*
X176538476Y-95067952D01*
X176586095Y-95163190D01*
X176586095Y-95448905D01*
X176538476Y-95544143D01*
X176490857Y-95591762D01*
X176395619Y-95639381D01*
X176205142Y-95639381D01*
X176109904Y-95591762D01*
X177157523Y-95639381D02*
X177062285Y-95591762D01*
X177014666Y-95496524D01*
X177014666Y-94639381D01*
X177919429Y-95591762D02*
X177824191Y-95639381D01*
X177633714Y-95639381D01*
X177538476Y-95591762D01*
X177490857Y-95496524D01*
X177490857Y-95115571D01*
X177538476Y-95020333D01*
X177633714Y-94972714D01*
X177824191Y-94972714D01*
X177919429Y-95020333D01*
X177967048Y-95115571D01*
X177967048Y-95210810D01*
X177490857Y-95306048D01*
X179681334Y-94687000D02*
X179586096Y-94639381D01*
X179443239Y-94639381D01*
X179300381Y-94687000D01*
X179205143Y-94782238D01*
X179157524Y-94877476D01*
X179109905Y-95067952D01*
X179109905Y-95210810D01*
X179157524Y-95401286D01*
X179205143Y-95496524D01*
X179300381Y-95591762D01*
X179443239Y-95639381D01*
X179538477Y-95639381D01*
X179681334Y-95591762D01*
X179728953Y-95544143D01*
X179728953Y-95210810D01*
X179538477Y-95210810D01*
X180586096Y-95639381D02*
X180586096Y-95115571D01*
X180538477Y-95020333D01*
X180443239Y-94972714D01*
X180252762Y-94972714D01*
X180157524Y-95020333D01*
X180586096Y-95591762D02*
X180490858Y-95639381D01*
X180252762Y-95639381D01*
X180157524Y-95591762D01*
X180109905Y-95496524D01*
X180109905Y-95401286D01*
X180157524Y-95306048D01*
X180252762Y-95258429D01*
X180490858Y-95258429D01*
X180586096Y-95210810D01*
X181062286Y-95639381D02*
X181062286Y-94972714D01*
X181062286Y-94639381D02*
X181014667Y-94687000D01*
X181062286Y-94734619D01*
X181109905Y-94687000D01*
X181062286Y-94639381D01*
X181062286Y-94734619D01*
X181538476Y-94972714D02*
X181538476Y-95639381D01*
X181538476Y-95067952D02*
X181586095Y-95020333D01*
X181681333Y-94972714D01*
X181824191Y-94972714D01*
X181919429Y-95020333D01*
X181967048Y-95115571D01*
X181967048Y-95639381D01*
X183157524Y-95353667D02*
X183633715Y-95353667D01*
X183062286Y-95639381D02*
X183395619Y-94639381D01*
X183728953Y-95639381D01*
X184062286Y-95639381D02*
X184062286Y-94972714D01*
X184062286Y-95067952D02*
X184109905Y-95020333D01*
X184205143Y-94972714D01*
X184348001Y-94972714D01*
X184443239Y-95020333D01*
X184490858Y-95115571D01*
X184490858Y-95639381D01*
X184490858Y-95115571D02*
X184538477Y-95020333D01*
X184633715Y-94972714D01*
X184776572Y-94972714D01*
X184871810Y-95020333D01*
X184919429Y-95115571D01*
X184919429Y-95639381D01*
X185395619Y-94972714D02*
X185395619Y-95972714D01*
X185395619Y-95020333D02*
X185490857Y-94972714D01*
X185681334Y-94972714D01*
X185776572Y-95020333D01*
X185824191Y-95067952D01*
X185871810Y-95163190D01*
X185871810Y-95448905D01*
X185824191Y-95544143D01*
X185776572Y-95591762D01*
X185681334Y-95639381D01*
X185490857Y-95639381D01*
X185395619Y-95591762D01*
X186443238Y-95639381D02*
X186348000Y-95591762D01*
X186300381Y-95496524D01*
X186300381Y-94639381D01*
X186824191Y-95639381D02*
X186824191Y-94972714D01*
X186824191Y-94639381D02*
X186776572Y-94687000D01*
X186824191Y-94734619D01*
X186871810Y-94687000D01*
X186824191Y-94639381D01*
X186824191Y-94734619D01*
X187157524Y-94972714D02*
X187538476Y-94972714D01*
X187300381Y-95639381D02*
X187300381Y-94782238D01*
X187348000Y-94687000D01*
X187443238Y-94639381D01*
X187538476Y-94639381D01*
X187871810Y-95639381D02*
X187871810Y-94972714D01*
X187871810Y-94639381D02*
X187824191Y-94687000D01*
X187871810Y-94734619D01*
X187919429Y-94687000D01*
X187871810Y-94639381D01*
X187871810Y-94734619D01*
X188728953Y-95591762D02*
X188633715Y-95639381D01*
X188443238Y-95639381D01*
X188348000Y-95591762D01*
X188300381Y-95496524D01*
X188300381Y-95115571D01*
X188348000Y-95020333D01*
X188443238Y-94972714D01*
X188633715Y-94972714D01*
X188728953Y-95020333D01*
X188776572Y-95115571D01*
X188776572Y-95210810D01*
X188300381Y-95306048D01*
X189205143Y-95639381D02*
X189205143Y-94972714D01*
X189205143Y-95163190D02*
X189252762Y-95067952D01*
X189300381Y-95020333D01*
X189395619Y-94972714D01*
X189490858Y-94972714D01*
X172919427Y-96622714D02*
X173109903Y-97289381D01*
X173300380Y-96813190D01*
X173490856Y-97289381D01*
X173681332Y-96622714D01*
X174062284Y-97289381D02*
X174062284Y-96622714D01*
X174062284Y-96289381D02*
X174014665Y-96337000D01*
X174062284Y-96384619D01*
X174109903Y-96337000D01*
X174062284Y-96289381D01*
X174062284Y-96384619D01*
X174395617Y-96622714D02*
X174776569Y-96622714D01*
X174538474Y-96289381D02*
X174538474Y-97146524D01*
X174586093Y-97241762D01*
X174681331Y-97289381D01*
X174776569Y-97289381D01*
X175109903Y-97289381D02*
X175109903Y-96289381D01*
X175538475Y-97289381D02*
X175538475Y-96765571D01*
X175490856Y-96670333D01*
X175395618Y-96622714D01*
X175252760Y-96622714D01*
X175157522Y-96670333D01*
X175109903Y-96717952D01*
X176728951Y-97003667D02*
X177205142Y-97003667D01*
X176633713Y-97289381D02*
X176967046Y-96289381D01*
X177300380Y-97289381D01*
X178062285Y-97289381D02*
X178062285Y-96289381D01*
X178062285Y-97241762D02*
X177967047Y-97289381D01*
X177776570Y-97289381D01*
X177681332Y-97241762D01*
X177633713Y-97194143D01*
X177586094Y-97098905D01*
X177586094Y-96813190D01*
X177633713Y-96717952D01*
X177681332Y-96670333D01*
X177776570Y-96622714D01*
X177967047Y-96622714D01*
X178062285Y-96670333D01*
X178538475Y-96622714D02*
X178538475Y-97479857D01*
X178490856Y-97575095D01*
X178395618Y-97622714D01*
X178347999Y-97622714D01*
X178538475Y-96289381D02*
X178490856Y-96337000D01*
X178538475Y-96384619D01*
X178586094Y-96337000D01*
X178538475Y-96289381D01*
X178538475Y-96384619D01*
X179443237Y-96622714D02*
X179443237Y-97289381D01*
X179014665Y-96622714D02*
X179014665Y-97146524D01*
X179062284Y-97241762D01*
X179157522Y-97289381D01*
X179300380Y-97289381D01*
X179395618Y-97241762D01*
X179443237Y-97194143D01*
X179871808Y-97241762D02*
X179967046Y-97289381D01*
X180157522Y-97289381D01*
X180252761Y-97241762D01*
X180300380Y-97146524D01*
X180300380Y-97098905D01*
X180252761Y-97003667D01*
X180157522Y-96956048D01*
X180014665Y-96956048D01*
X179919427Y-96908429D01*
X179871808Y-96813190D01*
X179871808Y-96765571D01*
X179919427Y-96670333D01*
X180014665Y-96622714D01*
X180157522Y-96622714D01*
X180252761Y-96670333D01*
X180586094Y-96622714D02*
X180967046Y-96622714D01*
X180728951Y-96289381D02*
X180728951Y-97146524D01*
X180776570Y-97241762D01*
X180871808Y-97289381D01*
X180967046Y-97289381D01*
X181728952Y-97289381D02*
X181728952Y-96765571D01*
X181681333Y-96670333D01*
X181586095Y-96622714D01*
X181395618Y-96622714D01*
X181300380Y-96670333D01*
X181728952Y-97241762D02*
X181633714Y-97289381D01*
X181395618Y-97289381D01*
X181300380Y-97241762D01*
X181252761Y-97146524D01*
X181252761Y-97051286D01*
X181300380Y-96956048D01*
X181395618Y-96908429D01*
X181633714Y-96908429D01*
X181728952Y-96860810D01*
X182205142Y-97289381D02*
X182205142Y-96289381D01*
X182205142Y-96670333D02*
X182300380Y-96622714D01*
X182490857Y-96622714D01*
X182586095Y-96670333D01*
X182633714Y-96717952D01*
X182681333Y-96813190D01*
X182681333Y-97098905D01*
X182633714Y-97194143D01*
X182586095Y-97241762D01*
X182490857Y-97289381D01*
X182300380Y-97289381D01*
X182205142Y-97241762D01*
X183252761Y-97289381D02*
X183157523Y-97241762D01*
X183109904Y-97146524D01*
X183109904Y-96289381D01*
X184014667Y-97241762D02*
X183919429Y-97289381D01*
X183728952Y-97289381D01*
X183633714Y-97241762D01*
X183586095Y-97146524D01*
X183586095Y-96765571D01*
X183633714Y-96670333D01*
X183728952Y-96622714D01*
X183919429Y-96622714D01*
X184014667Y-96670333D01*
X184062286Y-96765571D01*
X184062286Y-96860810D01*
X183586095Y-96956048D01*
X185586096Y-96765571D02*
X185252762Y-96765571D01*
X185252762Y-97289381D02*
X185252762Y-96289381D01*
X185728953Y-96289381D01*
X186109905Y-97289381D02*
X186109905Y-96622714D01*
X186109905Y-96289381D02*
X186062286Y-96337000D01*
X186109905Y-96384619D01*
X186157524Y-96337000D01*
X186109905Y-96289381D01*
X186109905Y-96384619D01*
X186728952Y-97289381D02*
X186633714Y-97241762D01*
X186586095Y-97146524D01*
X186586095Y-96289381D01*
X186967048Y-96622714D02*
X187348000Y-96622714D01*
X187109905Y-96289381D02*
X187109905Y-97146524D01*
X187157524Y-97241762D01*
X187252762Y-97289381D01*
X187348000Y-97289381D01*
X188062287Y-97241762D02*
X187967049Y-97289381D01*
X187776572Y-97289381D01*
X187681334Y-97241762D01*
X187633715Y-97146524D01*
X187633715Y-96765571D01*
X187681334Y-96670333D01*
X187776572Y-96622714D01*
X187967049Y-96622714D01*
X188062287Y-96670333D01*
X188109906Y-96765571D01*
X188109906Y-96860810D01*
X187633715Y-96956048D01*
X188538477Y-97289381D02*
X188538477Y-96622714D01*
X188538477Y-96813190D02*
X188586096Y-96717952D01*
X188633715Y-96670333D01*
X188728953Y-96622714D01*
X188824192Y-96622714D01*
X176594284Y-99734667D02*
X177070475Y-99734667D01*
X176499046Y-100020381D02*
X176832379Y-99020381D01*
X177165713Y-100020381D01*
X177499046Y-99353714D02*
X177499046Y-100020381D01*
X177499046Y-99448952D02*
X177546665Y-99401333D01*
X177641903Y-99353714D01*
X177784761Y-99353714D01*
X177879999Y-99401333D01*
X177927618Y-99496571D01*
X177927618Y-100020381D01*
X178260951Y-99353714D02*
X178641903Y-99353714D01*
X178403808Y-99020381D02*
X178403808Y-99877524D01*
X178451427Y-99972762D01*
X178546665Y-100020381D01*
X178641903Y-100020381D01*
X178975237Y-100020381D02*
X178975237Y-99020381D01*
X179403809Y-100020381D02*
X179403809Y-99496571D01*
X179356190Y-99401333D01*
X179260952Y-99353714D01*
X179118094Y-99353714D01*
X179022856Y-99401333D01*
X178975237Y-99448952D01*
X180022856Y-100020381D02*
X179927618Y-99972762D01*
X179879999Y-99925143D01*
X179832380Y-99829905D01*
X179832380Y-99544190D01*
X179879999Y-99448952D01*
X179927618Y-99401333D01*
X180022856Y-99353714D01*
X180165714Y-99353714D01*
X180260952Y-99401333D01*
X180308571Y-99448952D01*
X180356190Y-99544190D01*
X180356190Y-99829905D01*
X180308571Y-99925143D01*
X180260952Y-99972762D01*
X180165714Y-100020381D01*
X180022856Y-100020381D01*
X180784761Y-99353714D02*
X180784761Y-100020381D01*
X180784761Y-99448952D02*
X180832380Y-99401333D01*
X180927618Y-99353714D01*
X181070476Y-99353714D01*
X181165714Y-99401333D01*
X181213333Y-99496571D01*
X181213333Y-100020381D01*
X181594285Y-99353714D02*
X181832380Y-100020381D01*
X182070476Y-99353714D02*
X181832380Y-100020381D01*
X181737142Y-100258476D01*
X181689523Y-100306095D01*
X181594285Y-100353714D01*
X183213333Y-100020381D02*
X183213333Y-99020381D01*
X183784762Y-100020381D02*
X183356190Y-99448952D01*
X183784762Y-99020381D02*
X183213333Y-99591810D01*
X184356190Y-100020381D02*
X184260952Y-99972762D01*
X184213333Y-99925143D01*
X184165714Y-99829905D01*
X184165714Y-99544190D01*
X184213333Y-99448952D01*
X184260952Y-99401333D01*
X184356190Y-99353714D01*
X184499048Y-99353714D01*
X184594286Y-99401333D01*
X184641905Y-99448952D01*
X184689524Y-99544190D01*
X184689524Y-99829905D01*
X184641905Y-99925143D01*
X184594286Y-99972762D01*
X184499048Y-100020381D01*
X184356190Y-100020381D01*
X185546667Y-99353714D02*
X185546667Y-100020381D01*
X185118095Y-99353714D02*
X185118095Y-99877524D01*
X185165714Y-99972762D01*
X185260952Y-100020381D01*
X185403810Y-100020381D01*
X185499048Y-99972762D01*
X185546667Y-99925143D01*
X185880000Y-99353714D02*
X186260952Y-99353714D01*
X186022857Y-99020381D02*
X186022857Y-99877524D01*
X186070476Y-99972762D01*
X186165714Y-100020381D01*
X186260952Y-100020381D01*
X186451429Y-99353714D02*
X186832381Y-99353714D01*
X186594286Y-99020381D02*
X186594286Y-99877524D01*
X186641905Y-99972762D01*
X186737143Y-100020381D01*
X186832381Y-100020381D01*
X187165715Y-100020381D02*
X187165715Y-99353714D01*
X187165715Y-99544190D02*
X187213334Y-99448952D01*
X187260953Y-99401333D01*
X187356191Y-99353714D01*
X187451430Y-99353714D01*
X187927620Y-100020381D02*
X187832382Y-99972762D01*
X187784763Y-99925143D01*
X187737144Y-99829905D01*
X187737144Y-99544190D01*
X187784763Y-99448952D01*
X187832382Y-99401333D01*
X187927620Y-99353714D01*
X188070478Y-99353714D01*
X188165716Y-99401333D01*
X188213335Y-99448952D01*
X188260954Y-99544190D01*
X188260954Y-99829905D01*
X188213335Y-99925143D01*
X188165716Y-99972762D01*
X188070478Y-100020381D01*
X187927620Y-100020381D01*
X188689525Y-99353714D02*
X188689525Y-100020381D01*
X188689525Y-99448952D02*
X188737144Y-99401333D01*
X188832382Y-99353714D01*
X188975240Y-99353714D01*
X189070478Y-99401333D01*
X189118097Y-99496571D01*
X189118097Y-100020381D01*
X139313334Y-121187857D02*
X139046667Y-121187857D01*
X139046667Y-121606905D02*
X139046667Y-120806905D01*
X139427620Y-120806905D01*
X140189524Y-121606905D02*
X139922857Y-121225952D01*
X139732381Y-121606905D02*
X139732381Y-120806905D01*
X140037143Y-120806905D01*
X140113334Y-120845000D01*
X140151429Y-120883095D01*
X140189524Y-120959286D01*
X140189524Y-121073571D01*
X140151429Y-121149762D01*
X140113334Y-121187857D01*
X140037143Y-121225952D01*
X139732381Y-121225952D01*
X140532381Y-121187857D02*
X140799048Y-121187857D01*
X140913334Y-121606905D02*
X140532381Y-121606905D01*
X140532381Y-120806905D01*
X140913334Y-120806905D01*
X141789525Y-121683095D02*
X141713334Y-121645000D01*
X141637144Y-121568810D01*
X141522858Y-121454524D01*
X141446667Y-121416429D01*
X141370477Y-121416429D01*
X141408572Y-121606905D02*
X141332382Y-121568810D01*
X141256191Y-121492619D01*
X141218096Y-121340238D01*
X141218096Y-121073571D01*
X141256191Y-120921190D01*
X141332382Y-120845000D01*
X141408572Y-120806905D01*
X141560953Y-120806905D01*
X141637144Y-120845000D01*
X141713334Y-120921190D01*
X141751429Y-121073571D01*
X141751429Y-121340238D01*
X141713334Y-121492619D01*
X141637144Y-121568810D01*
X141560953Y-121606905D01*
X141408572Y-121606905D01*
X142094286Y-120806905D02*
X142094286Y-121454524D01*
X142132381Y-121530714D01*
X142170477Y-121568810D01*
X142246667Y-121606905D01*
X142399048Y-121606905D01*
X142475239Y-121568810D01*
X142513334Y-121530714D01*
X142551429Y-121454524D01*
X142551429Y-120806905D01*
X142932381Y-121187857D02*
X143199048Y-121187857D01*
X143313334Y-121606905D02*
X142932381Y-121606905D01*
X142932381Y-120806905D01*
X143313334Y-120806905D01*
X143656191Y-121606905D02*
X143656191Y-120806905D01*
X144113334Y-121606905D01*
X144113334Y-120806905D01*
X144951429Y-121530714D02*
X144913334Y-121568810D01*
X144799048Y-121606905D01*
X144722858Y-121606905D01*
X144608572Y-121568810D01*
X144532381Y-121492619D01*
X144494286Y-121416429D01*
X144456191Y-121264048D01*
X144456191Y-121149762D01*
X144494286Y-120997381D01*
X144532381Y-120921190D01*
X144608572Y-120845000D01*
X144722858Y-120806905D01*
X144799048Y-120806905D01*
X144913334Y-120845000D01*
X144951429Y-120883095D01*
X145446667Y-121225952D02*
X145446667Y-121606905D01*
X145180000Y-120806905D02*
X145446667Y-121225952D01*
X145713334Y-120806905D01*
X146551429Y-121378333D02*
X146932381Y-121378333D01*
X146475238Y-121606905D02*
X146741905Y-120806905D01*
X147008572Y-121606905D01*
X147275238Y-121606905D02*
X147275238Y-120806905D01*
X147465714Y-120806905D01*
X147580000Y-120845000D01*
X147656191Y-120921190D01*
X147694286Y-120997381D01*
X147732381Y-121149762D01*
X147732381Y-121264048D01*
X147694286Y-121416429D01*
X147656191Y-121492619D01*
X147580000Y-121568810D01*
X147465714Y-121606905D01*
X147275238Y-121606905D01*
X148303810Y-120806905D02*
X148303810Y-121378333D01*
X148265714Y-121492619D01*
X148189524Y-121568810D01*
X148075238Y-121606905D01*
X147999048Y-121606905D01*
X148684762Y-120806905D02*
X148684762Y-121454524D01*
X148722857Y-121530714D01*
X148760953Y-121568810D01*
X148837143Y-121606905D01*
X148989524Y-121606905D01*
X149065715Y-121568810D01*
X149103810Y-121530714D01*
X149141905Y-121454524D01*
X149141905Y-120806905D01*
X149484762Y-121568810D02*
X149599048Y-121606905D01*
X149789524Y-121606905D01*
X149865714Y-121568810D01*
X149903810Y-121530714D01*
X149941905Y-121454524D01*
X149941905Y-121378333D01*
X149903810Y-121302143D01*
X149865714Y-121264048D01*
X149789524Y-121225952D01*
X149637143Y-121187857D01*
X149560952Y-121149762D01*
X149522857Y-121111667D01*
X149484762Y-121035476D01*
X149484762Y-120959286D01*
X149522857Y-120883095D01*
X149560952Y-120845000D01*
X149637143Y-120806905D01*
X149827619Y-120806905D01*
X149941905Y-120845000D01*
X150170476Y-120806905D02*
X150627619Y-120806905D01*
X150399048Y-121606905D02*
X150399048Y-120806905D01*
X140360953Y-122880714D02*
X140322858Y-122918810D01*
X140208572Y-122956905D01*
X140132382Y-122956905D01*
X140018096Y-122918810D01*
X139941905Y-122842619D01*
X139903810Y-122766429D01*
X139865715Y-122614048D01*
X139865715Y-122499762D01*
X139903810Y-122347381D01*
X139941905Y-122271190D01*
X140018096Y-122195000D01*
X140132382Y-122156905D01*
X140208572Y-122156905D01*
X140322858Y-122195000D01*
X140360953Y-122233095D01*
X140665715Y-122728333D02*
X141046667Y-122728333D01*
X140589524Y-122956905D02*
X140856191Y-122156905D01*
X141122858Y-122956905D01*
X141389524Y-122956905D02*
X141389524Y-122156905D01*
X141694286Y-122156905D01*
X141770477Y-122195000D01*
X141808572Y-122233095D01*
X141846667Y-122309286D01*
X141846667Y-122423571D01*
X141808572Y-122499762D01*
X141770477Y-122537857D01*
X141694286Y-122575952D01*
X141389524Y-122575952D01*
X142151429Y-122728333D02*
X142532381Y-122728333D01*
X142075238Y-122956905D02*
X142341905Y-122156905D01*
X142608572Y-122956905D01*
X143332381Y-122880714D02*
X143294286Y-122918810D01*
X143180000Y-122956905D01*
X143103810Y-122956905D01*
X142989524Y-122918810D01*
X142913333Y-122842619D01*
X142875238Y-122766429D01*
X142837143Y-122614048D01*
X142837143Y-122499762D01*
X142875238Y-122347381D01*
X142913333Y-122271190D01*
X142989524Y-122195000D01*
X143103810Y-122156905D01*
X143180000Y-122156905D01*
X143294286Y-122195000D01*
X143332381Y-122233095D01*
X143675238Y-122956905D02*
X143675238Y-122156905D01*
X143941904Y-122156905D02*
X144399047Y-122156905D01*
X144170476Y-122956905D02*
X144170476Y-122156905D01*
X144818095Y-122156905D02*
X144970476Y-122156905D01*
X145046667Y-122195000D01*
X145122857Y-122271190D01*
X145160952Y-122423571D01*
X145160952Y-122690238D01*
X145122857Y-122842619D01*
X145046667Y-122918810D01*
X144970476Y-122956905D01*
X144818095Y-122956905D01*
X144741905Y-122918810D01*
X144665714Y-122842619D01*
X144627619Y-122690238D01*
X144627619Y-122423571D01*
X144665714Y-122271190D01*
X144741905Y-122195000D01*
X144818095Y-122156905D01*
X145960952Y-122956905D02*
X145694285Y-122575952D01*
X145503809Y-122956905D02*
X145503809Y-122156905D01*
X145808571Y-122156905D01*
X145884762Y-122195000D01*
X145922857Y-122233095D01*
X145960952Y-122309286D01*
X145960952Y-122423571D01*
X145922857Y-122499762D01*
X145884762Y-122537857D01*
X145808571Y-122575952D01*
X145503809Y-122575952D01*
X147180000Y-122537857D02*
X147294286Y-122575952D01*
X147332381Y-122614048D01*
X147370476Y-122690238D01*
X147370476Y-122804524D01*
X147332381Y-122880714D01*
X147294286Y-122918810D01*
X147218095Y-122956905D01*
X146913333Y-122956905D01*
X146913333Y-122156905D01*
X147180000Y-122156905D01*
X147256190Y-122195000D01*
X147294286Y-122233095D01*
X147332381Y-122309286D01*
X147332381Y-122385476D01*
X147294286Y-122461667D01*
X147256190Y-122499762D01*
X147180000Y-122537857D01*
X146913333Y-122537857D01*
X147675238Y-122728333D02*
X148056190Y-122728333D01*
X147599047Y-122956905D02*
X147865714Y-122156905D01*
X148132381Y-122956905D01*
X148399047Y-122956905D02*
X148399047Y-122156905D01*
X148856190Y-122956905D01*
X148856190Y-122156905D01*
X149237142Y-122956905D02*
X149237142Y-122156905D01*
X149694285Y-122956905D02*
X149351428Y-122499762D01*
X149694285Y-122156905D02*
X149237142Y-122614048D01*
D13*
X175088000Y-70622000D02*
X166288000Y-70622000D01*
X166288000Y-74422000D02*
X166288000Y-66722000D01*
X166288000Y-66722000D02*
X175088000Y-66722000D01*
X175088000Y-66722000D02*
X175088000Y-66922000D01*
X168138000Y-80322000D02*
X166288000Y-80322000D01*
X166288000Y-80322000D02*
X166288000Y-79472000D01*
X175088000Y-66822000D02*
X175088000Y-80322000D01*
X175088000Y-80322000D02*
X173238000Y-80322000D01*
X169172000Y-99910000D02*
X170172000Y-99910000D01*
X170172000Y-98210000D02*
X169172000Y-98210000D01*
D12*
X146344000Y-68036000D02*
X146344000Y-67536000D01*
X145844000Y-72036000D02*
G75*
G03X145844000Y-72036000I-2000000J0D01*
G01*
X150844000Y-72036000D02*
G75*
G03X150844000Y-72036000I-2000000J0D01*
G01*
X151344000Y-69536000D02*
X141344000Y-69536000D01*
X151344000Y-74436000D02*
X141344000Y-74436000D01*
X151344000Y-68036000D02*
X141344000Y-68036000D01*
X151344000Y-67536000D02*
X141344000Y-67536000D01*
X141344000Y-67536000D02*
X141344000Y-77336000D01*
X141344000Y-77336000D02*
X151344000Y-77336000D01*
X151344000Y-77336000D02*
X151344000Y-67536000D01*
X173696000Y-127544000D02*
X173696000Y-128044000D01*
X178196000Y-123544000D02*
G75*
G03X178196000Y-123544000I-2000000J0D01*
G01*
X173196000Y-123544000D02*
G75*
G03X173196000Y-123544000I-2000000J0D01*
G01*
X168696000Y-126044000D02*
X178696000Y-126044000D01*
X168696000Y-121144000D02*
X178696000Y-121144000D01*
X168696000Y-127544000D02*
X178696000Y-127544000D01*
X168696000Y-128044000D02*
X178696000Y-128044000D01*
X178696000Y-128044000D02*
X178696000Y-118244000D01*
X178696000Y-118244000D02*
X168696000Y-118244000D01*
X168696000Y-118244000D02*
X168696000Y-128044000D01*
D13*
X157572000Y-85208000D02*
X156372000Y-85208000D01*
X156372000Y-83448000D02*
X157572000Y-83448000D01*
X159928000Y-113420000D02*
X161128000Y-113420000D01*
X161128000Y-115180000D02*
X159928000Y-115180000D01*
X159648000Y-109820000D02*
X159648000Y-108620000D01*
X161408000Y-108620000D02*
X161408000Y-109820000D01*
X171568000Y-89316000D02*
X171568000Y-90516000D01*
X169808000Y-90516000D02*
X169808000Y-89316000D01*
X165064000Y-110880000D02*
X165064000Y-112640000D01*
X168134000Y-112640000D02*
X168134000Y-110210000D01*
X148044000Y-84912000D02*
X149644000Y-84912000D01*
X149644000Y-84912000D02*
X149644000Y-82312000D01*
X148044000Y-84912000D02*
X148044000Y-82312000D01*
X161388000Y-98512000D02*
G75*
G03X161388000Y-98512000I-900000J0D01*
G01*
X163698000Y-96885000D02*
X163698000Y-101722000D01*
X157278000Y-96885000D02*
X157278000Y-101722000D01*
X162230000Y-95302000D02*
X158745000Y-95302000D01*
X163698000Y-101722000D02*
X161245000Y-101722000D01*
X159730000Y-101722000D02*
X157278000Y-101722000D01*
X157314000Y-109720000D02*
X157314000Y-108720000D01*
X155614000Y-108720000D02*
X155614000Y-109720000D01*
X138518000Y-103116000D02*
X138518000Y-102116000D01*
X136818000Y-102116000D02*
X136818000Y-103116000D01*
X140550000Y-103116000D02*
X140550000Y-102116000D01*
X138850000Y-102116000D02*
X138850000Y-103116000D01*
X142582000Y-103116000D02*
X142582000Y-102116000D01*
X140882000Y-102116000D02*
X140882000Y-103116000D01*
X144614000Y-103116000D02*
X144614000Y-102116000D01*
X142914000Y-102116000D02*
X142914000Y-103116000D01*
X146646000Y-103116000D02*
X146646000Y-102116000D01*
X144946000Y-102116000D02*
X144946000Y-103116000D01*
X148678000Y-103116000D02*
X148678000Y-102116000D01*
X146978000Y-102116000D02*
X146978000Y-103116000D01*
X150710000Y-103116000D02*
X150710000Y-102116000D01*
X149010000Y-102116000D02*
X149010000Y-103116000D01*
X152742000Y-103116000D02*
X152742000Y-102116000D01*
X151042000Y-102116000D02*
X151042000Y-103116000D01*
X139005000Y-119418000D02*
X139005000Y-112108000D01*
X150555000Y-117508000D02*
X150555000Y-112108000D01*
D12*
X175730381Y-75265333D02*
X176444667Y-75265333D01*
X176587524Y-75312953D01*
X176682762Y-75408191D01*
X176730381Y-75551048D01*
X176730381Y-75646286D01*
X175730381Y-74884381D02*
X175730381Y-74265333D01*
X176111333Y-74598667D01*
X176111333Y-74455809D01*
X176158952Y-74360571D01*
X176206571Y-74312952D01*
X176301810Y-74265333D01*
X176539905Y-74265333D01*
X176635143Y-74312952D01*
X176682762Y-74360571D01*
X176730381Y-74455809D01*
X176730381Y-74741524D01*
X176682762Y-74836762D01*
X176635143Y-74884381D01*
X177236953Y-79208381D02*
X176760762Y-79208381D01*
X176713143Y-79684571D01*
X176760762Y-79636952D01*
X176856000Y-79589333D01*
X177094096Y-79589333D01*
X177189334Y-79636952D01*
X177236953Y-79684571D01*
X177284572Y-79779810D01*
X177284572Y-80017905D01*
X177236953Y-80113143D01*
X177189334Y-80160762D01*
X177094096Y-80208381D01*
X176856000Y-80208381D01*
X176760762Y-80160762D01*
X176713143Y-80113143D01*
X177570286Y-79208381D02*
X177903619Y-80208381D01*
X178236953Y-79208381D01*
X179332191Y-80208381D02*
X179332191Y-79208381D01*
X179570286Y-79208381D01*
X179713144Y-79256000D01*
X179808382Y-79351238D01*
X179856001Y-79446476D01*
X179903620Y-79636952D01*
X179903620Y-79779810D01*
X179856001Y-79970286D01*
X179808382Y-80065524D01*
X179713144Y-80160762D01*
X179570286Y-80208381D01*
X179332191Y-80208381D01*
X180903620Y-80113143D02*
X180856001Y-80160762D01*
X180713144Y-80208381D01*
X180617906Y-80208381D01*
X180475048Y-80160762D01*
X180379810Y-80065524D01*
X180332191Y-79970286D01*
X180284572Y-79779810D01*
X180284572Y-79636952D01*
X180332191Y-79446476D01*
X180379810Y-79351238D01*
X180475048Y-79256000D01*
X180617906Y-79208381D01*
X180713144Y-79208381D01*
X180856001Y-79256000D01*
X180903620Y-79303619D01*
X182094096Y-80208381D02*
X182094096Y-79208381D01*
X182570286Y-80208381D02*
X182570286Y-79208381D01*
X183141715Y-80208381D01*
X183141715Y-79208381D01*
X183617905Y-80208381D02*
X183617905Y-79208381D01*
X183998858Y-79208381D01*
X184094096Y-79256000D01*
X184141715Y-79303619D01*
X184189334Y-79398857D01*
X184189334Y-79541714D01*
X184141715Y-79636952D01*
X184094096Y-79684571D01*
X183998858Y-79732190D01*
X183617905Y-79732190D01*
X184617905Y-79208381D02*
X184617905Y-80017905D01*
X184665524Y-80113143D01*
X184713143Y-80160762D01*
X184808381Y-80208381D01*
X184998858Y-80208381D01*
X185094096Y-80160762D01*
X185141715Y-80113143D01*
X185189334Y-80017905D01*
X185189334Y-79208381D01*
X185522667Y-79208381D02*
X186094096Y-79208381D01*
X185808381Y-80208381D02*
X185808381Y-79208381D01*
X169505334Y-101167143D02*
X169457715Y-101214762D01*
X169314858Y-101262381D01*
X169219620Y-101262381D01*
X169076762Y-101214762D01*
X168981524Y-101119524D01*
X168933905Y-101024286D01*
X168886286Y-100833810D01*
X168886286Y-100690952D01*
X168933905Y-100500476D01*
X168981524Y-100405238D01*
X169076762Y-100310000D01*
X169219620Y-100262381D01*
X169314858Y-100262381D01*
X169457715Y-100310000D01*
X169505334Y-100357619D01*
X169886286Y-100357619D02*
X169933905Y-100310000D01*
X170029143Y-100262381D01*
X170267239Y-100262381D01*
X170362477Y-100310000D01*
X170410096Y-100357619D01*
X170457715Y-100452857D01*
X170457715Y-100548095D01*
X170410096Y-100690952D01*
X169838667Y-101262381D01*
X170457715Y-101262381D01*
X168600572Y-97762381D02*
X168029143Y-97762381D01*
X168314857Y-97762381D02*
X168314857Y-96762381D01*
X168219619Y-96905238D01*
X168124381Y-97000476D01*
X168029143Y-97048095D01*
X169219619Y-96762381D02*
X169314858Y-96762381D01*
X169410096Y-96810000D01*
X169457715Y-96857619D01*
X169505334Y-96952857D01*
X169552953Y-97143333D01*
X169552953Y-97381429D01*
X169505334Y-97571905D01*
X169457715Y-97667143D01*
X169410096Y-97714762D01*
X169314858Y-97762381D01*
X169219619Y-97762381D01*
X169124381Y-97714762D01*
X169076762Y-97667143D01*
X169029143Y-97571905D01*
X168981524Y-97381429D01*
X168981524Y-97143333D01*
X169029143Y-96952857D01*
X169076762Y-96857619D01*
X169124381Y-96810000D01*
X169219619Y-96762381D01*
X170410096Y-97095714D02*
X170410096Y-97762381D01*
X169981524Y-97095714D02*
X169981524Y-97619524D01*
X170029143Y-97714762D01*
X170124381Y-97762381D01*
X170267239Y-97762381D01*
X170362477Y-97714762D01*
X170410096Y-97667143D01*
X171219620Y-97238571D02*
X170886286Y-97238571D01*
X170886286Y-97762381D02*
X170886286Y-96762381D01*
X171362477Y-96762381D01*
X169505334Y-101167143D02*
X169457715Y-101214762D01*
X169314858Y-101262381D01*
X169219620Y-101262381D01*
X169076762Y-101214762D01*
X168981524Y-101119524D01*
X168933905Y-101024286D01*
X168886286Y-100833810D01*
X168886286Y-100690952D01*
X168933905Y-100500476D01*
X168981524Y-100405238D01*
X169076762Y-100310000D01*
X169219620Y-100262381D01*
X169314858Y-100262381D01*
X169457715Y-100310000D01*
X169505334Y-100357619D01*
X169886286Y-100357619D02*
X169933905Y-100310000D01*
X170029143Y-100262381D01*
X170267239Y-100262381D01*
X170362477Y-100310000D01*
X170410096Y-100357619D01*
X170457715Y-100452857D01*
X170457715Y-100548095D01*
X170410096Y-100690952D01*
X169838667Y-101262381D01*
X170457715Y-101262381D01*
X152574667Y-67524381D02*
X152574667Y-68238667D01*
X152527047Y-68381524D01*
X152431809Y-68476762D01*
X152288952Y-68524381D01*
X152193714Y-68524381D01*
X153574667Y-68524381D02*
X153003238Y-68524381D01*
X153288952Y-68524381D02*
X153288952Y-67524381D01*
X153193714Y-67667238D01*
X153098476Y-67762476D01*
X153003238Y-67810095D01*
X139740571Y-78700381D02*
X139835810Y-78700381D01*
X139931048Y-78748000D01*
X139978667Y-78795619D01*
X140026286Y-78890857D01*
X140073905Y-79081333D01*
X140073905Y-79319429D01*
X140026286Y-79509905D01*
X139978667Y-79605143D01*
X139931048Y-79652762D01*
X139835810Y-79700381D01*
X139740571Y-79700381D01*
X139645333Y-79652762D01*
X139597714Y-79605143D01*
X139550095Y-79509905D01*
X139502476Y-79319429D01*
X139502476Y-79081333D01*
X139550095Y-78890857D01*
X139597714Y-78795619D01*
X139645333Y-78748000D01*
X139740571Y-78700381D01*
X140502476Y-79319429D02*
X141264381Y-79319429D01*
X141692952Y-78795619D02*
X141740571Y-78748000D01*
X141835809Y-78700381D01*
X142073905Y-78700381D01*
X142169143Y-78748000D01*
X142216762Y-78795619D01*
X142264381Y-78890857D01*
X142264381Y-78986095D01*
X142216762Y-79128952D01*
X141645333Y-79700381D01*
X142264381Y-79700381D01*
X142550095Y-78700381D02*
X142883428Y-79700381D01*
X143216762Y-78700381D01*
X144312000Y-79700381D02*
X144312000Y-78700381D01*
X144788190Y-79700381D02*
X144788190Y-78700381D01*
X145359619Y-79700381D01*
X145359619Y-78700381D01*
X145835809Y-79700381D02*
X145835809Y-78700381D01*
X146216762Y-78700381D01*
X146312000Y-78748000D01*
X146359619Y-78795619D01*
X146407238Y-78890857D01*
X146407238Y-79033714D01*
X146359619Y-79128952D01*
X146312000Y-79176571D01*
X146216762Y-79224190D01*
X145835809Y-79224190D01*
X146835809Y-78700381D02*
X146835809Y-79509905D01*
X146883428Y-79605143D01*
X146931047Y-79652762D01*
X147026285Y-79700381D01*
X147216762Y-79700381D01*
X147312000Y-79652762D01*
X147359619Y-79605143D01*
X147407238Y-79509905D01*
X147407238Y-78700381D01*
X147740571Y-78700381D02*
X148312000Y-78700381D01*
X148026285Y-79700381D02*
X148026285Y-78700381D01*
X149359619Y-79652762D02*
X149502476Y-79700381D01*
X149740572Y-79700381D01*
X149835810Y-79652762D01*
X149883429Y-79605143D01*
X149931048Y-79509905D01*
X149931048Y-79414667D01*
X149883429Y-79319429D01*
X149835810Y-79271810D01*
X149740572Y-79224190D01*
X149550095Y-79176571D01*
X149454857Y-79128952D01*
X149407238Y-79081333D01*
X149359619Y-78986095D01*
X149359619Y-78890857D01*
X149407238Y-78795619D01*
X149454857Y-78748000D01*
X149550095Y-78700381D01*
X149788191Y-78700381D01*
X149931048Y-78748000D01*
X150359619Y-79700381D02*
X150359619Y-78700381D01*
X151359619Y-78748000D02*
X151264381Y-78700381D01*
X151121524Y-78700381D01*
X150978666Y-78748000D01*
X150883428Y-78843238D01*
X150835809Y-78938476D01*
X150788190Y-79128952D01*
X150788190Y-79271810D01*
X150835809Y-79462286D01*
X150883428Y-79557524D01*
X150978666Y-79652762D01*
X151121524Y-79700381D01*
X151216762Y-79700381D01*
X151359619Y-79652762D01*
X151407238Y-79605143D01*
X151407238Y-79271810D01*
X151216762Y-79271810D01*
X151835809Y-79700381D02*
X151835809Y-78700381D01*
X152407238Y-79700381D01*
X152407238Y-78700381D01*
X152835809Y-79414667D02*
X153312000Y-79414667D01*
X152740571Y-79700381D02*
X153073904Y-78700381D01*
X153407238Y-79700381D01*
X154216762Y-79700381D02*
X153740571Y-79700381D01*
X153740571Y-78700381D01*
X180006667Y-126960381D02*
X180006667Y-127674667D01*
X179959047Y-127817524D01*
X179863809Y-127912762D01*
X179720952Y-127960381D01*
X179625714Y-127960381D01*
X180435238Y-127055619D02*
X180482857Y-127008000D01*
X180578095Y-126960381D01*
X180816191Y-126960381D01*
X180911429Y-127008000D01*
X180959048Y-127055619D01*
X181006667Y-127150857D01*
X181006667Y-127246095D01*
X180959048Y-127388952D01*
X180387619Y-127960381D01*
X181006667Y-127960381D01*
X150757904Y-126452381D02*
X150853143Y-126452381D01*
X150948381Y-126500000D01*
X150996000Y-126547619D01*
X151043619Y-126642857D01*
X151091238Y-126833333D01*
X151091238Y-127071429D01*
X151043619Y-127261905D01*
X150996000Y-127357143D01*
X150948381Y-127404762D01*
X150853143Y-127452381D01*
X150757904Y-127452381D01*
X150662666Y-127404762D01*
X150615047Y-127357143D01*
X150567428Y-127261905D01*
X150519809Y-127071429D01*
X150519809Y-126833333D01*
X150567428Y-126642857D01*
X150615047Y-126547619D01*
X150662666Y-126500000D01*
X150757904Y-126452381D01*
X151519809Y-127071429D02*
X152281714Y-127071429D01*
X153234095Y-126452381D02*
X152757904Y-126452381D01*
X152710285Y-126928571D01*
X152757904Y-126880952D01*
X152853142Y-126833333D01*
X153091238Y-126833333D01*
X153186476Y-126880952D01*
X153234095Y-126928571D01*
X153281714Y-127023810D01*
X153281714Y-127261905D01*
X153234095Y-127357143D01*
X153186476Y-127404762D01*
X153091238Y-127452381D01*
X152853142Y-127452381D01*
X152757904Y-127404762D01*
X152710285Y-127357143D01*
X153567428Y-126452381D02*
X153900761Y-127452381D01*
X154234095Y-126452381D01*
X155519809Y-126452381D02*
X155710286Y-126452381D01*
X155805524Y-126500000D01*
X155900762Y-126595238D01*
X155948381Y-126785714D01*
X155948381Y-127119048D01*
X155900762Y-127309524D01*
X155805524Y-127404762D01*
X155710286Y-127452381D01*
X155519809Y-127452381D01*
X155424571Y-127404762D01*
X155329333Y-127309524D01*
X155281714Y-127119048D01*
X155281714Y-126785714D01*
X155329333Y-126595238D01*
X155424571Y-126500000D01*
X155519809Y-126452381D01*
X156376952Y-126452381D02*
X156376952Y-127261905D01*
X156424571Y-127357143D01*
X156472190Y-127404762D01*
X156567428Y-127452381D01*
X156757905Y-127452381D01*
X156853143Y-127404762D01*
X156900762Y-127357143D01*
X156948381Y-127261905D01*
X156948381Y-126452381D01*
X157281714Y-126452381D02*
X157853143Y-126452381D01*
X157567428Y-127452381D02*
X157567428Y-126452381D01*
X158186476Y-127452381D02*
X158186476Y-126452381D01*
X158567429Y-126452381D01*
X158662667Y-126500000D01*
X158710286Y-126547619D01*
X158757905Y-126642857D01*
X158757905Y-126785714D01*
X158710286Y-126880952D01*
X158662667Y-126928571D01*
X158567429Y-126976190D01*
X158186476Y-126976190D01*
X159186476Y-126452381D02*
X159186476Y-127261905D01*
X159234095Y-127357143D01*
X159281714Y-127404762D01*
X159376952Y-127452381D01*
X159567429Y-127452381D01*
X159662667Y-127404762D01*
X159710286Y-127357143D01*
X159757905Y-127261905D01*
X159757905Y-126452381D01*
X160091238Y-126452381D02*
X160662667Y-126452381D01*
X160376952Y-127452381D02*
X160376952Y-126452381D01*
X161710286Y-127404762D02*
X161853143Y-127452381D01*
X162091239Y-127452381D01*
X162186477Y-127404762D01*
X162234096Y-127357143D01*
X162281715Y-127261905D01*
X162281715Y-127166667D01*
X162234096Y-127071429D01*
X162186477Y-127023810D01*
X162091239Y-126976190D01*
X161900762Y-126928571D01*
X161805524Y-126880952D01*
X161757905Y-126833333D01*
X161710286Y-126738095D01*
X161710286Y-126642857D01*
X161757905Y-126547619D01*
X161805524Y-126500000D01*
X161900762Y-126452381D01*
X162138858Y-126452381D01*
X162281715Y-126500000D01*
X162710286Y-127452381D02*
X162710286Y-126452381D01*
X163710286Y-126500000D02*
X163615048Y-126452381D01*
X163472191Y-126452381D01*
X163329333Y-126500000D01*
X163234095Y-126595238D01*
X163186476Y-126690476D01*
X163138857Y-126880952D01*
X163138857Y-127023810D01*
X163186476Y-127214286D01*
X163234095Y-127309524D01*
X163329333Y-127404762D01*
X163472191Y-127452381D01*
X163567429Y-127452381D01*
X163710286Y-127404762D01*
X163757905Y-127357143D01*
X163757905Y-127023810D01*
X163567429Y-127023810D01*
X164186476Y-127452381D02*
X164186476Y-126452381D01*
X164757905Y-127452381D01*
X164757905Y-126452381D01*
X165186476Y-127166667D02*
X165662667Y-127166667D01*
X165091238Y-127452381D02*
X165424571Y-126452381D01*
X165757905Y-127452381D01*
X166567429Y-127452381D02*
X166091238Y-127452381D01*
X166091238Y-126452381D01*
X156805334Y-83080381D02*
X156472000Y-82604190D01*
X156233905Y-83080381D02*
X156233905Y-82080381D01*
X156614858Y-82080381D01*
X156710096Y-82128000D01*
X156757715Y-82175619D01*
X156805334Y-82270857D01*
X156805334Y-82413714D01*
X156757715Y-82508952D01*
X156710096Y-82556571D01*
X156614858Y-82604190D01*
X156233905Y-82604190D01*
X157757715Y-83080381D02*
X157186286Y-83080381D01*
X157472000Y-83080381D02*
X157472000Y-82080381D01*
X157376762Y-82223238D01*
X157281524Y-82318476D01*
X157186286Y-82366095D01*
X156305334Y-86530381D02*
X155733905Y-86530381D01*
X156019619Y-86530381D02*
X156019619Y-85530381D01*
X155924381Y-85673238D01*
X155829143Y-85768476D01*
X155733905Y-85816095D01*
X156924381Y-85530381D02*
X157019620Y-85530381D01*
X157114858Y-85578000D01*
X157162477Y-85625619D01*
X157210096Y-85720857D01*
X157257715Y-85911333D01*
X157257715Y-86149429D01*
X157210096Y-86339905D01*
X157162477Y-86435143D01*
X157114858Y-86482762D01*
X157019620Y-86530381D01*
X156924381Y-86530381D01*
X156829143Y-86482762D01*
X156781524Y-86435143D01*
X156733905Y-86339905D01*
X156686286Y-86149429D01*
X156686286Y-85911333D01*
X156733905Y-85720857D01*
X156781524Y-85625619D01*
X156829143Y-85578000D01*
X156924381Y-85530381D01*
X157876762Y-85530381D02*
X157972001Y-85530381D01*
X158067239Y-85578000D01*
X158114858Y-85625619D01*
X158162477Y-85720857D01*
X158210096Y-85911333D01*
X158210096Y-86149429D01*
X158162477Y-86339905D01*
X158114858Y-86435143D01*
X158067239Y-86482762D01*
X157972001Y-86530381D01*
X157876762Y-86530381D01*
X157781524Y-86482762D01*
X157733905Y-86435143D01*
X157686286Y-86339905D01*
X157638667Y-86149429D01*
X157638667Y-85911333D01*
X157686286Y-85720857D01*
X157733905Y-85625619D01*
X157781524Y-85578000D01*
X157876762Y-85530381D01*
X160361334Y-116452381D02*
X160028000Y-115976190D01*
X159789905Y-116452381D02*
X159789905Y-115452381D01*
X160170858Y-115452381D01*
X160266096Y-115500000D01*
X160313715Y-115547619D01*
X160361334Y-115642857D01*
X160361334Y-115785714D01*
X160313715Y-115880952D01*
X160266096Y-115928571D01*
X160170858Y-115976190D01*
X159789905Y-115976190D01*
X160742286Y-115547619D02*
X160789905Y-115500000D01*
X160885143Y-115452381D01*
X161123239Y-115452381D01*
X161218477Y-115500000D01*
X161266096Y-115547619D01*
X161313715Y-115642857D01*
X161313715Y-115738095D01*
X161266096Y-115880952D01*
X160694667Y-116452381D01*
X161313715Y-116452381D01*
X159742286Y-112097619D02*
X159789905Y-112050000D01*
X159885143Y-112002381D01*
X160123239Y-112002381D01*
X160218477Y-112050000D01*
X160266096Y-112097619D01*
X160313715Y-112192857D01*
X160313715Y-112288095D01*
X160266096Y-112430952D01*
X159694667Y-113002381D01*
X160313715Y-113002381D01*
X160742286Y-113002381D02*
X160742286Y-112002381D01*
X161313715Y-113002381D02*
X160885143Y-112430952D01*
X161313715Y-112002381D02*
X160742286Y-112573810D01*
X162680381Y-109386666D02*
X162204190Y-109720000D01*
X162680381Y-109958095D02*
X161680381Y-109958095D01*
X161680381Y-109577142D01*
X161728000Y-109481904D01*
X161775619Y-109434285D01*
X161870857Y-109386666D01*
X162013714Y-109386666D01*
X162108952Y-109434285D01*
X162156571Y-109481904D01*
X162204190Y-109577142D01*
X162204190Y-109958095D01*
X161680381Y-109053333D02*
X161680381Y-108434285D01*
X162061333Y-108767619D01*
X162061333Y-108624761D01*
X162108952Y-108529523D01*
X162156571Y-108481904D01*
X162251810Y-108434285D01*
X162489905Y-108434285D01*
X162585143Y-108481904D01*
X162632762Y-108529523D01*
X162680381Y-108624761D01*
X162680381Y-108910476D01*
X162632762Y-109005714D01*
X162585143Y-109053333D01*
X158230381Y-110053333D02*
X158230381Y-109434285D01*
X158611333Y-109767619D01*
X158611333Y-109624761D01*
X158658952Y-109529523D01*
X158706571Y-109481904D01*
X158801810Y-109434285D01*
X159039905Y-109434285D01*
X159135143Y-109481904D01*
X159182762Y-109529523D01*
X159230381Y-109624761D01*
X159230381Y-109910476D01*
X159182762Y-110005714D01*
X159135143Y-110053333D01*
X159230381Y-109005714D02*
X158230381Y-109005714D01*
X159230381Y-108434285D02*
X158658952Y-108862857D01*
X158230381Y-108434285D02*
X158801810Y-109005714D01*
X169440381Y-90082666D02*
X168964190Y-90416000D01*
X169440381Y-90654095D02*
X168440381Y-90654095D01*
X168440381Y-90273142D01*
X168488000Y-90177904D01*
X168535619Y-90130285D01*
X168630857Y-90082666D01*
X168773714Y-90082666D01*
X168868952Y-90130285D01*
X168916571Y-90177904D01*
X168964190Y-90273142D01*
X168964190Y-90654095D01*
X168773714Y-89225523D02*
X169440381Y-89225523D01*
X168392762Y-89463619D02*
X169107048Y-89701714D01*
X169107048Y-89082666D01*
X172890381Y-90106476D02*
X172890381Y-90677905D01*
X172890381Y-90392191D02*
X171890381Y-90392191D01*
X172033238Y-90487429D01*
X172128476Y-90582667D01*
X172176095Y-90677905D01*
X171890381Y-89487429D02*
X171890381Y-89392190D01*
X171938000Y-89296952D01*
X171985619Y-89249333D01*
X172080857Y-89201714D01*
X172271333Y-89154095D01*
X172509429Y-89154095D01*
X172699905Y-89201714D01*
X172795143Y-89249333D01*
X172842762Y-89296952D01*
X172890381Y-89392190D01*
X172890381Y-89487429D01*
X172842762Y-89582667D01*
X172795143Y-89630286D01*
X172699905Y-89677905D01*
X172509429Y-89725524D01*
X172271333Y-89725524D01*
X172080857Y-89677905D01*
X171985619Y-89630286D01*
X171938000Y-89582667D01*
X171890381Y-89487429D01*
X168526381Y-112521905D02*
X169335905Y-112521905D01*
X169431143Y-112474286D01*
X169478762Y-112426667D01*
X169526381Y-112331429D01*
X169526381Y-112140952D01*
X169478762Y-112045714D01*
X169431143Y-111998095D01*
X169335905Y-111950476D01*
X168526381Y-111950476D01*
X169526381Y-110950476D02*
X169526381Y-111521905D01*
X169526381Y-111236191D02*
X168526381Y-111236191D01*
X168669238Y-111331429D01*
X168764476Y-111426667D01*
X168812095Y-111521905D01*
X163576381Y-114212381D02*
X163576381Y-114021904D01*
X163624000Y-113926666D01*
X163719238Y-113831428D01*
X163909714Y-113783809D01*
X164243048Y-113783809D01*
X164433524Y-113831428D01*
X164528762Y-113926666D01*
X164576381Y-114021904D01*
X164576381Y-114212381D01*
X164528762Y-114307619D01*
X164433524Y-114402857D01*
X164243048Y-114450476D01*
X163909714Y-114450476D01*
X163719238Y-114402857D01*
X163624000Y-114307619D01*
X163576381Y-114212381D01*
X164576381Y-113355238D02*
X163576381Y-113355238D01*
X163576381Y-112974285D01*
X163624000Y-112879047D01*
X163671619Y-112831428D01*
X163766857Y-112783809D01*
X163909714Y-112783809D01*
X164004952Y-112831428D01*
X164052571Y-112879047D01*
X164100190Y-112974285D01*
X164100190Y-113355238D01*
X164290667Y-112402857D02*
X164290667Y-111926666D01*
X164576381Y-112498095D02*
X163576381Y-112164762D01*
X164576381Y-111831428D01*
X163576381Y-111593333D02*
X163576381Y-110974285D01*
X163957333Y-111307619D01*
X163957333Y-111164761D01*
X164004952Y-111069523D01*
X164052571Y-111021904D01*
X164147810Y-110974285D01*
X164385905Y-110974285D01*
X164481143Y-111021904D01*
X164528762Y-111069523D01*
X164576381Y-111164761D01*
X164576381Y-111450476D01*
X164528762Y-111545714D01*
X164481143Y-111593333D01*
X163909714Y-110117142D02*
X164576381Y-110117142D01*
X163528762Y-110355238D02*
X164243048Y-110593333D01*
X164243048Y-109974285D01*
X163671619Y-109640952D02*
X163624000Y-109593333D01*
X163576381Y-109498095D01*
X163576381Y-109259999D01*
X163624000Y-109164761D01*
X163671619Y-109117142D01*
X163766857Y-109069523D01*
X163862095Y-109069523D01*
X164004952Y-109117142D01*
X164576381Y-109688571D01*
X164576381Y-109069523D01*
X147696381Y-84050095D02*
X146696381Y-84050095D01*
X146696381Y-83812000D01*
X146744000Y-83669142D01*
X146839238Y-83573904D01*
X146934476Y-83526285D01*
X147124952Y-83478666D01*
X147267810Y-83478666D01*
X147458286Y-83526285D01*
X147553524Y-83573904D01*
X147648762Y-83669142D01*
X147696381Y-83812000D01*
X147696381Y-84050095D01*
X147696381Y-82526285D02*
X147696381Y-83097714D01*
X147696381Y-82812000D02*
X146696381Y-82812000D01*
X146839238Y-82907238D01*
X146934476Y-83002476D01*
X146982095Y-83097714D01*
X150091619Y-84502476D02*
X150044000Y-84454857D01*
X149996381Y-84359619D01*
X149996381Y-84121523D01*
X150044000Y-84026285D01*
X150091619Y-83978666D01*
X150186857Y-83931047D01*
X150282095Y-83931047D01*
X150424952Y-83978666D01*
X150996381Y-84550095D01*
X150996381Y-83931047D01*
X149996381Y-83312000D02*
X149996381Y-83216761D01*
X150044000Y-83121523D01*
X150091619Y-83073904D01*
X150186857Y-83026285D01*
X150377333Y-82978666D01*
X150615429Y-82978666D01*
X150805905Y-83026285D01*
X150901143Y-83073904D01*
X150948762Y-83121523D01*
X150996381Y-83216761D01*
X150996381Y-83312000D01*
X150948762Y-83407238D01*
X150901143Y-83454857D01*
X150805905Y-83502476D01*
X150615429Y-83550095D01*
X150377333Y-83550095D01*
X150186857Y-83502476D01*
X150091619Y-83454857D01*
X150044000Y-83407238D01*
X149996381Y-83312000D01*
X149996381Y-82692952D02*
X150996381Y-82359619D01*
X149996381Y-82026285D01*
X147696381Y-84050095D02*
X146696381Y-84050095D01*
X146696381Y-83812000D01*
X146744000Y-83669142D01*
X146839238Y-83573904D01*
X146934476Y-83526285D01*
X147124952Y-83478666D01*
X147267810Y-83478666D01*
X147458286Y-83526285D01*
X147553524Y-83573904D01*
X147648762Y-83669142D01*
X147696381Y-83812000D01*
X147696381Y-84050095D01*
X147696381Y-82526285D02*
X147696381Y-83097714D01*
X147696381Y-82812000D02*
X146696381Y-82812000D01*
X146839238Y-82907238D01*
X146934476Y-83002476D01*
X146982095Y-83097714D01*
X164452762Y-98964381D02*
X164119428Y-98488190D01*
X163881333Y-98964381D02*
X163881333Y-97964381D01*
X164262286Y-97964381D01*
X164357524Y-98012000D01*
X164405143Y-98059619D01*
X164452762Y-98154857D01*
X164452762Y-98297714D01*
X164405143Y-98392952D01*
X164357524Y-98440571D01*
X164262286Y-98488190D01*
X163881333Y-98488190D01*
X164738476Y-97964381D02*
X165071809Y-98964381D01*
X165405143Y-97964381D01*
X166262286Y-98964381D02*
X165690857Y-98964381D01*
X165976571Y-98964381D02*
X165976571Y-97964381D01*
X165881333Y-98107238D01*
X165786095Y-98202476D01*
X165690857Y-98250095D01*
X155237524Y-98964381D02*
X154666095Y-98964381D01*
X154951809Y-98964381D02*
X154951809Y-97964381D01*
X154856571Y-98107238D01*
X154761333Y-98202476D01*
X154666095Y-98250095D01*
X155856571Y-97964381D02*
X155951810Y-97964381D01*
X156047048Y-98012000D01*
X156094667Y-98059619D01*
X156142286Y-98154857D01*
X156189905Y-98345333D01*
X156189905Y-98583429D01*
X156142286Y-98773905D01*
X156094667Y-98869143D01*
X156047048Y-98916762D01*
X155951810Y-98964381D01*
X155856571Y-98964381D01*
X155761333Y-98916762D01*
X155713714Y-98869143D01*
X155666095Y-98773905D01*
X155618476Y-98583429D01*
X155618476Y-98345333D01*
X155666095Y-98154857D01*
X155713714Y-98059619D01*
X155761333Y-98012000D01*
X155856571Y-97964381D01*
X156618476Y-98964381D02*
X156618476Y-97964381D01*
X157189905Y-98964381D02*
X156761333Y-98392952D01*
X157189905Y-97964381D02*
X156618476Y-98535810D01*
X156297334Y-103481143D02*
X156249715Y-103528762D01*
X156106858Y-103576381D01*
X156011620Y-103576381D01*
X155868762Y-103528762D01*
X155773524Y-103433524D01*
X155725905Y-103338286D01*
X155678286Y-103147810D01*
X155678286Y-103004952D01*
X155725905Y-102814476D01*
X155773524Y-102719238D01*
X155868762Y-102624000D01*
X156011620Y-102576381D01*
X156106858Y-102576381D01*
X156249715Y-102624000D01*
X156297334Y-102671619D01*
X157249715Y-103576381D02*
X156678286Y-103576381D01*
X156964000Y-103576381D02*
X156964000Y-102576381D01*
X156868762Y-102719238D01*
X156773524Y-102814476D01*
X156678286Y-102862095D01*
X155166381Y-110767619D02*
X155166381Y-111339048D01*
X155166381Y-111053334D02*
X154166381Y-111053334D01*
X154309238Y-111148572D01*
X154404476Y-111243810D01*
X154452095Y-111339048D01*
X154166381Y-110148572D02*
X154166381Y-110053333D01*
X154214000Y-109958095D01*
X154261619Y-109910476D01*
X154356857Y-109862857D01*
X154547333Y-109815238D01*
X154785429Y-109815238D01*
X154975905Y-109862857D01*
X155071143Y-109910476D01*
X155118762Y-109958095D01*
X155166381Y-110053333D01*
X155166381Y-110148572D01*
X155118762Y-110243810D01*
X155071143Y-110291429D01*
X154975905Y-110339048D01*
X154785429Y-110386667D01*
X154547333Y-110386667D01*
X154356857Y-110339048D01*
X154261619Y-110291429D01*
X154214000Y-110243810D01*
X154166381Y-110148572D01*
X154166381Y-109196191D02*
X154166381Y-109100952D01*
X154214000Y-109005714D01*
X154261619Y-108958095D01*
X154356857Y-108910476D01*
X154547333Y-108862857D01*
X154785429Y-108862857D01*
X154975905Y-108910476D01*
X155071143Y-108958095D01*
X155118762Y-109005714D01*
X155166381Y-109100952D01*
X155166381Y-109196191D01*
X155118762Y-109291429D01*
X155071143Y-109339048D01*
X154975905Y-109386667D01*
X154785429Y-109434286D01*
X154547333Y-109434286D01*
X154356857Y-109386667D01*
X154261619Y-109339048D01*
X154214000Y-109291429D01*
X154166381Y-109196191D01*
X154499714Y-108434286D02*
X155166381Y-108434286D01*
X154594952Y-108434286D02*
X154547333Y-108386667D01*
X154499714Y-108291429D01*
X154499714Y-108148571D01*
X154547333Y-108053333D01*
X154642571Y-108005714D01*
X155166381Y-108005714D01*
X154642571Y-107196190D02*
X154642571Y-107529524D01*
X155166381Y-107529524D02*
X154166381Y-107529524D01*
X154166381Y-107053333D01*
X156297334Y-103481143D02*
X156249715Y-103528762D01*
X156106858Y-103576381D01*
X156011620Y-103576381D01*
X155868762Y-103528762D01*
X155773524Y-103433524D01*
X155725905Y-103338286D01*
X155678286Y-103147810D01*
X155678286Y-103004952D01*
X155725905Y-102814476D01*
X155773524Y-102719238D01*
X155868762Y-102624000D01*
X156011620Y-102576381D01*
X156106858Y-102576381D01*
X156249715Y-102624000D01*
X156297334Y-102671619D01*
X157249715Y-103576381D02*
X156678286Y-103576381D01*
X156964000Y-103576381D02*
X156964000Y-102576381D01*
X156868762Y-102719238D01*
X156773524Y-102814476D01*
X156678286Y-102862095D01*
X138025143Y-107354666D02*
X138072762Y-107402285D01*
X138120381Y-107545142D01*
X138120381Y-107640380D01*
X138072762Y-107783238D01*
X137977524Y-107878476D01*
X137882286Y-107926095D01*
X137691810Y-107973714D01*
X137548952Y-107973714D01*
X137358476Y-107926095D01*
X137263238Y-107878476D01*
X137168000Y-107783238D01*
X137120381Y-107640380D01*
X137120381Y-107545142D01*
X137168000Y-107402285D01*
X137215619Y-107354666D01*
X137120381Y-107021333D02*
X137120381Y-106402285D01*
X137501333Y-106735619D01*
X137501333Y-106592761D01*
X137548952Y-106497523D01*
X137596571Y-106449904D01*
X137691810Y-106402285D01*
X137929905Y-106402285D01*
X138025143Y-106449904D01*
X138072762Y-106497523D01*
X138120381Y-106592761D01*
X138120381Y-106878476D01*
X138072762Y-106973714D01*
X138025143Y-107021333D01*
X137215619Y-99512191D02*
X137168000Y-99464572D01*
X137120381Y-99369334D01*
X137120381Y-99131238D01*
X137168000Y-99036000D01*
X137215619Y-98988381D01*
X137310857Y-98940762D01*
X137406095Y-98940762D01*
X137548952Y-98988381D01*
X138120381Y-99559810D01*
X138120381Y-98940762D01*
X137120381Y-98321715D02*
X137120381Y-98226476D01*
X137168000Y-98131238D01*
X137215619Y-98083619D01*
X137310857Y-98036000D01*
X137501333Y-97988381D01*
X137739429Y-97988381D01*
X137929905Y-98036000D01*
X138025143Y-98083619D01*
X138072762Y-98131238D01*
X138120381Y-98226476D01*
X138120381Y-98321715D01*
X138072762Y-98416953D01*
X138025143Y-98464572D01*
X137929905Y-98512191D01*
X137739429Y-98559810D01*
X137501333Y-98559810D01*
X137310857Y-98512191D01*
X137215619Y-98464572D01*
X137168000Y-98416953D01*
X137120381Y-98321715D01*
X137120381Y-97369334D02*
X137120381Y-97274095D01*
X137168000Y-97178857D01*
X137215619Y-97131238D01*
X137310857Y-97083619D01*
X137501333Y-97036000D01*
X137739429Y-97036000D01*
X137929905Y-97083619D01*
X138025143Y-97131238D01*
X138072762Y-97178857D01*
X138120381Y-97274095D01*
X138120381Y-97369334D01*
X138072762Y-97464572D01*
X138025143Y-97512191D01*
X137929905Y-97559810D01*
X137739429Y-97607429D01*
X137501333Y-97607429D01*
X137310857Y-97559810D01*
X137215619Y-97512191D01*
X137168000Y-97464572D01*
X137120381Y-97369334D01*
X137453714Y-96607429D02*
X138453714Y-96607429D01*
X137501333Y-96607429D02*
X137453714Y-96512191D01*
X137453714Y-96321714D01*
X137501333Y-96226476D01*
X137548952Y-96178857D01*
X137644190Y-96131238D01*
X137929905Y-96131238D01*
X138025143Y-96178857D01*
X138072762Y-96226476D01*
X138120381Y-96321714D01*
X138120381Y-96512191D01*
X138072762Y-96607429D01*
X137453714Y-95845524D02*
X137453714Y-95464572D01*
X138120381Y-95702667D02*
X137263238Y-95702667D01*
X137168000Y-95655048D01*
X137120381Y-95559810D01*
X137120381Y-95464572D01*
X138025143Y-107354666D02*
X138072762Y-107402285D01*
X138120381Y-107545142D01*
X138120381Y-107640380D01*
X138072762Y-107783238D01*
X137977524Y-107878476D01*
X137882286Y-107926095D01*
X137691810Y-107973714D01*
X137548952Y-107973714D01*
X137358476Y-107926095D01*
X137263238Y-107878476D01*
X137168000Y-107783238D01*
X137120381Y-107640380D01*
X137120381Y-107545142D01*
X137168000Y-107402285D01*
X137215619Y-107354666D01*
X137120381Y-107021333D02*
X137120381Y-106402285D01*
X137501333Y-106735619D01*
X137501333Y-106592761D01*
X137548952Y-106497523D01*
X137596571Y-106449904D01*
X137691810Y-106402285D01*
X137929905Y-106402285D01*
X138025143Y-106449904D01*
X138072762Y-106497523D01*
X138120381Y-106592761D01*
X138120381Y-106878476D01*
X138072762Y-106973714D01*
X138025143Y-107021333D01*
X140057143Y-107354666D02*
X140104762Y-107402285D01*
X140152381Y-107545142D01*
X140152381Y-107640380D01*
X140104762Y-107783238D01*
X140009524Y-107878476D01*
X139914286Y-107926095D01*
X139723810Y-107973714D01*
X139580952Y-107973714D01*
X139390476Y-107926095D01*
X139295238Y-107878476D01*
X139200000Y-107783238D01*
X139152381Y-107640380D01*
X139152381Y-107545142D01*
X139200000Y-107402285D01*
X139247619Y-107354666D01*
X139485714Y-106497523D02*
X140152381Y-106497523D01*
X139104762Y-106735619D02*
X139819048Y-106973714D01*
X139819048Y-106354666D01*
X139247619Y-99512191D02*
X139200000Y-99464572D01*
X139152381Y-99369334D01*
X139152381Y-99131238D01*
X139200000Y-99036000D01*
X139247619Y-98988381D01*
X139342857Y-98940762D01*
X139438095Y-98940762D01*
X139580952Y-98988381D01*
X140152381Y-99559810D01*
X140152381Y-98940762D01*
X139152381Y-98321715D02*
X139152381Y-98226476D01*
X139200000Y-98131238D01*
X139247619Y-98083619D01*
X139342857Y-98036000D01*
X139533333Y-97988381D01*
X139771429Y-97988381D01*
X139961905Y-98036000D01*
X140057143Y-98083619D01*
X140104762Y-98131238D01*
X140152381Y-98226476D01*
X140152381Y-98321715D01*
X140104762Y-98416953D01*
X140057143Y-98464572D01*
X139961905Y-98512191D01*
X139771429Y-98559810D01*
X139533333Y-98559810D01*
X139342857Y-98512191D01*
X139247619Y-98464572D01*
X139200000Y-98416953D01*
X139152381Y-98321715D01*
X139152381Y-97369334D02*
X139152381Y-97274095D01*
X139200000Y-97178857D01*
X139247619Y-97131238D01*
X139342857Y-97083619D01*
X139533333Y-97036000D01*
X139771429Y-97036000D01*
X139961905Y-97083619D01*
X140057143Y-97131238D01*
X140104762Y-97178857D01*
X140152381Y-97274095D01*
X140152381Y-97369334D01*
X140104762Y-97464572D01*
X140057143Y-97512191D01*
X139961905Y-97559810D01*
X139771429Y-97607429D01*
X139533333Y-97607429D01*
X139342857Y-97559810D01*
X139247619Y-97512191D01*
X139200000Y-97464572D01*
X139152381Y-97369334D01*
X139485714Y-96607429D02*
X140485714Y-96607429D01*
X139533333Y-96607429D02*
X139485714Y-96512191D01*
X139485714Y-96321714D01*
X139533333Y-96226476D01*
X139580952Y-96178857D01*
X139676190Y-96131238D01*
X139961905Y-96131238D01*
X140057143Y-96178857D01*
X140104762Y-96226476D01*
X140152381Y-96321714D01*
X140152381Y-96512191D01*
X140104762Y-96607429D01*
X139485714Y-95845524D02*
X139485714Y-95464572D01*
X140152381Y-95702667D02*
X139295238Y-95702667D01*
X139200000Y-95655048D01*
X139152381Y-95559810D01*
X139152381Y-95464572D01*
X140057143Y-107354666D02*
X140104762Y-107402285D01*
X140152381Y-107545142D01*
X140152381Y-107640380D01*
X140104762Y-107783238D01*
X140009524Y-107878476D01*
X139914286Y-107926095D01*
X139723810Y-107973714D01*
X139580952Y-107973714D01*
X139390476Y-107926095D01*
X139295238Y-107878476D01*
X139200000Y-107783238D01*
X139152381Y-107640380D01*
X139152381Y-107545142D01*
X139200000Y-107402285D01*
X139247619Y-107354666D01*
X139485714Y-106497523D02*
X140152381Y-106497523D01*
X139104762Y-106735619D02*
X139819048Y-106973714D01*
X139819048Y-106354666D01*
X142089143Y-107354666D02*
X142136762Y-107402285D01*
X142184381Y-107545142D01*
X142184381Y-107640380D01*
X142136762Y-107783238D01*
X142041524Y-107878476D01*
X141946286Y-107926095D01*
X141755810Y-107973714D01*
X141612952Y-107973714D01*
X141422476Y-107926095D01*
X141327238Y-107878476D01*
X141232000Y-107783238D01*
X141184381Y-107640380D01*
X141184381Y-107545142D01*
X141232000Y-107402285D01*
X141279619Y-107354666D01*
X141184381Y-106449904D02*
X141184381Y-106926095D01*
X141660571Y-106973714D01*
X141612952Y-106926095D01*
X141565333Y-106830857D01*
X141565333Y-106592761D01*
X141612952Y-106497523D01*
X141660571Y-106449904D01*
X141755810Y-106402285D01*
X141993905Y-106402285D01*
X142089143Y-106449904D01*
X142136762Y-106497523D01*
X142184381Y-106592761D01*
X142184381Y-106830857D01*
X142136762Y-106926095D01*
X142089143Y-106973714D01*
X141279619Y-99512191D02*
X141232000Y-99464572D01*
X141184381Y-99369334D01*
X141184381Y-99131238D01*
X141232000Y-99036000D01*
X141279619Y-98988381D01*
X141374857Y-98940762D01*
X141470095Y-98940762D01*
X141612952Y-98988381D01*
X142184381Y-99559810D01*
X142184381Y-98940762D01*
X141184381Y-98321715D02*
X141184381Y-98226476D01*
X141232000Y-98131238D01*
X141279619Y-98083619D01*
X141374857Y-98036000D01*
X141565333Y-97988381D01*
X141803429Y-97988381D01*
X141993905Y-98036000D01*
X142089143Y-98083619D01*
X142136762Y-98131238D01*
X142184381Y-98226476D01*
X142184381Y-98321715D01*
X142136762Y-98416953D01*
X142089143Y-98464572D01*
X141993905Y-98512191D01*
X141803429Y-98559810D01*
X141565333Y-98559810D01*
X141374857Y-98512191D01*
X141279619Y-98464572D01*
X141232000Y-98416953D01*
X141184381Y-98321715D01*
X141184381Y-97369334D02*
X141184381Y-97274095D01*
X141232000Y-97178857D01*
X141279619Y-97131238D01*
X141374857Y-97083619D01*
X141565333Y-97036000D01*
X141803429Y-97036000D01*
X141993905Y-97083619D01*
X142089143Y-97131238D01*
X142136762Y-97178857D01*
X142184381Y-97274095D01*
X142184381Y-97369334D01*
X142136762Y-97464572D01*
X142089143Y-97512191D01*
X141993905Y-97559810D01*
X141803429Y-97607429D01*
X141565333Y-97607429D01*
X141374857Y-97559810D01*
X141279619Y-97512191D01*
X141232000Y-97464572D01*
X141184381Y-97369334D01*
X141517714Y-96607429D02*
X142517714Y-96607429D01*
X141565333Y-96607429D02*
X141517714Y-96512191D01*
X141517714Y-96321714D01*
X141565333Y-96226476D01*
X141612952Y-96178857D01*
X141708190Y-96131238D01*
X141993905Y-96131238D01*
X142089143Y-96178857D01*
X142136762Y-96226476D01*
X142184381Y-96321714D01*
X142184381Y-96512191D01*
X142136762Y-96607429D01*
X141517714Y-95845524D02*
X141517714Y-95464572D01*
X142184381Y-95702667D02*
X141327238Y-95702667D01*
X141232000Y-95655048D01*
X141184381Y-95559810D01*
X141184381Y-95464572D01*
X142089143Y-107354666D02*
X142136762Y-107402285D01*
X142184381Y-107545142D01*
X142184381Y-107640380D01*
X142136762Y-107783238D01*
X142041524Y-107878476D01*
X141946286Y-107926095D01*
X141755810Y-107973714D01*
X141612952Y-107973714D01*
X141422476Y-107926095D01*
X141327238Y-107878476D01*
X141232000Y-107783238D01*
X141184381Y-107640380D01*
X141184381Y-107545142D01*
X141232000Y-107402285D01*
X141279619Y-107354666D01*
X141184381Y-106449904D02*
X141184381Y-106926095D01*
X141660571Y-106973714D01*
X141612952Y-106926095D01*
X141565333Y-106830857D01*
X141565333Y-106592761D01*
X141612952Y-106497523D01*
X141660571Y-106449904D01*
X141755810Y-106402285D01*
X141993905Y-106402285D01*
X142089143Y-106449904D01*
X142136762Y-106497523D01*
X142184381Y-106592761D01*
X142184381Y-106830857D01*
X142136762Y-106926095D01*
X142089143Y-106973714D01*
X143311619Y-99512191D02*
X143264000Y-99464572D01*
X143216381Y-99369334D01*
X143216381Y-99131238D01*
X143264000Y-99036000D01*
X143311619Y-98988381D01*
X143406857Y-98940762D01*
X143502095Y-98940762D01*
X143644952Y-98988381D01*
X144216381Y-99559810D01*
X144216381Y-98940762D01*
X143216381Y-98321715D02*
X143216381Y-98226476D01*
X143264000Y-98131238D01*
X143311619Y-98083619D01*
X143406857Y-98036000D01*
X143597333Y-97988381D01*
X143835429Y-97988381D01*
X144025905Y-98036000D01*
X144121143Y-98083619D01*
X144168762Y-98131238D01*
X144216381Y-98226476D01*
X144216381Y-98321715D01*
X144168762Y-98416953D01*
X144121143Y-98464572D01*
X144025905Y-98512191D01*
X143835429Y-98559810D01*
X143597333Y-98559810D01*
X143406857Y-98512191D01*
X143311619Y-98464572D01*
X143264000Y-98416953D01*
X143216381Y-98321715D01*
X143216381Y-97369334D02*
X143216381Y-97274095D01*
X143264000Y-97178857D01*
X143311619Y-97131238D01*
X143406857Y-97083619D01*
X143597333Y-97036000D01*
X143835429Y-97036000D01*
X144025905Y-97083619D01*
X144121143Y-97131238D01*
X144168762Y-97178857D01*
X144216381Y-97274095D01*
X144216381Y-97369334D01*
X144168762Y-97464572D01*
X144121143Y-97512191D01*
X144025905Y-97559810D01*
X143835429Y-97607429D01*
X143597333Y-97607429D01*
X143406857Y-97559810D01*
X143311619Y-97512191D01*
X143264000Y-97464572D01*
X143216381Y-97369334D01*
X143549714Y-96607429D02*
X144549714Y-96607429D01*
X143597333Y-96607429D02*
X143549714Y-96512191D01*
X143549714Y-96321714D01*
X143597333Y-96226476D01*
X143644952Y-96178857D01*
X143740190Y-96131238D01*
X144025905Y-96131238D01*
X144121143Y-96178857D01*
X144168762Y-96226476D01*
X144216381Y-96321714D01*
X144216381Y-96512191D01*
X144168762Y-96607429D01*
X143549714Y-95845524D02*
X143549714Y-95464572D01*
X144216381Y-95702667D02*
X143359238Y-95702667D01*
X143264000Y-95655048D01*
X143216381Y-95559810D01*
X143216381Y-95464572D01*
X144121143Y-107354666D02*
X144168762Y-107402285D01*
X144216381Y-107545142D01*
X144216381Y-107640380D01*
X144168762Y-107783238D01*
X144073524Y-107878476D01*
X143978286Y-107926095D01*
X143787810Y-107973714D01*
X143644952Y-107973714D01*
X143454476Y-107926095D01*
X143359238Y-107878476D01*
X143264000Y-107783238D01*
X143216381Y-107640380D01*
X143216381Y-107545142D01*
X143264000Y-107402285D01*
X143311619Y-107354666D01*
X143216381Y-106497523D02*
X143216381Y-106688000D01*
X143264000Y-106783238D01*
X143311619Y-106830857D01*
X143454476Y-106926095D01*
X143644952Y-106973714D01*
X144025905Y-106973714D01*
X144121143Y-106926095D01*
X144168762Y-106878476D01*
X144216381Y-106783238D01*
X144216381Y-106592761D01*
X144168762Y-106497523D01*
X144121143Y-106449904D01*
X144025905Y-106402285D01*
X143787810Y-106402285D01*
X143692571Y-106449904D01*
X143644952Y-106497523D01*
X143597333Y-106592761D01*
X143597333Y-106783238D01*
X143644952Y-106878476D01*
X143692571Y-106926095D01*
X143787810Y-106973714D01*
X146153143Y-107354666D02*
X146200762Y-107402285D01*
X146248381Y-107545142D01*
X146248381Y-107640380D01*
X146200762Y-107783238D01*
X146105524Y-107878476D01*
X146010286Y-107926095D01*
X145819810Y-107973714D01*
X145676952Y-107973714D01*
X145486476Y-107926095D01*
X145391238Y-107878476D01*
X145296000Y-107783238D01*
X145248381Y-107640380D01*
X145248381Y-107545142D01*
X145296000Y-107402285D01*
X145343619Y-107354666D01*
X145248381Y-107021333D02*
X145248381Y-106354666D01*
X146248381Y-106783238D01*
X145343619Y-99512191D02*
X145296000Y-99464572D01*
X145248381Y-99369334D01*
X145248381Y-99131238D01*
X145296000Y-99036000D01*
X145343619Y-98988381D01*
X145438857Y-98940762D01*
X145534095Y-98940762D01*
X145676952Y-98988381D01*
X146248381Y-99559810D01*
X146248381Y-98940762D01*
X145248381Y-98321715D02*
X145248381Y-98226476D01*
X145296000Y-98131238D01*
X145343619Y-98083619D01*
X145438857Y-98036000D01*
X145629333Y-97988381D01*
X145867429Y-97988381D01*
X146057905Y-98036000D01*
X146153143Y-98083619D01*
X146200762Y-98131238D01*
X146248381Y-98226476D01*
X146248381Y-98321715D01*
X146200762Y-98416953D01*
X146153143Y-98464572D01*
X146057905Y-98512191D01*
X145867429Y-98559810D01*
X145629333Y-98559810D01*
X145438857Y-98512191D01*
X145343619Y-98464572D01*
X145296000Y-98416953D01*
X145248381Y-98321715D01*
X145248381Y-97369334D02*
X145248381Y-97274095D01*
X145296000Y-97178857D01*
X145343619Y-97131238D01*
X145438857Y-97083619D01*
X145629333Y-97036000D01*
X145867429Y-97036000D01*
X146057905Y-97083619D01*
X146153143Y-97131238D01*
X146200762Y-97178857D01*
X146248381Y-97274095D01*
X146248381Y-97369334D01*
X146200762Y-97464572D01*
X146153143Y-97512191D01*
X146057905Y-97559810D01*
X145867429Y-97607429D01*
X145629333Y-97607429D01*
X145438857Y-97559810D01*
X145343619Y-97512191D01*
X145296000Y-97464572D01*
X145248381Y-97369334D01*
X145581714Y-96607429D02*
X146581714Y-96607429D01*
X145629333Y-96607429D02*
X145581714Y-96512191D01*
X145581714Y-96321714D01*
X145629333Y-96226476D01*
X145676952Y-96178857D01*
X145772190Y-96131238D01*
X146057905Y-96131238D01*
X146153143Y-96178857D01*
X146200762Y-96226476D01*
X146248381Y-96321714D01*
X146248381Y-96512191D01*
X146200762Y-96607429D01*
X145581714Y-95845524D02*
X145581714Y-95464572D01*
X146248381Y-95702667D02*
X145391238Y-95702667D01*
X145296000Y-95655048D01*
X145248381Y-95559810D01*
X145248381Y-95464572D01*
X146153143Y-107354666D02*
X146200762Y-107402285D01*
X146248381Y-107545142D01*
X146248381Y-107640380D01*
X146200762Y-107783238D01*
X146105524Y-107878476D01*
X146010286Y-107926095D01*
X145819810Y-107973714D01*
X145676952Y-107973714D01*
X145486476Y-107926095D01*
X145391238Y-107878476D01*
X145296000Y-107783238D01*
X145248381Y-107640380D01*
X145248381Y-107545142D01*
X145296000Y-107402285D01*
X145343619Y-107354666D01*
X145248381Y-107021333D02*
X145248381Y-106354666D01*
X146248381Y-106783238D01*
X148185143Y-107354666D02*
X148232762Y-107402285D01*
X148280381Y-107545142D01*
X148280381Y-107640380D01*
X148232762Y-107783238D01*
X148137524Y-107878476D01*
X148042286Y-107926095D01*
X147851810Y-107973714D01*
X147708952Y-107973714D01*
X147518476Y-107926095D01*
X147423238Y-107878476D01*
X147328000Y-107783238D01*
X147280381Y-107640380D01*
X147280381Y-107545142D01*
X147328000Y-107402285D01*
X147375619Y-107354666D01*
X147708952Y-106783238D02*
X147661333Y-106878476D01*
X147613714Y-106926095D01*
X147518476Y-106973714D01*
X147470857Y-106973714D01*
X147375619Y-106926095D01*
X147328000Y-106878476D01*
X147280381Y-106783238D01*
X147280381Y-106592761D01*
X147328000Y-106497523D01*
X147375619Y-106449904D01*
X147470857Y-106402285D01*
X147518476Y-106402285D01*
X147613714Y-106449904D01*
X147661333Y-106497523D01*
X147708952Y-106592761D01*
X147708952Y-106783238D01*
X147756571Y-106878476D01*
X147804190Y-106926095D01*
X147899429Y-106973714D01*
X148089905Y-106973714D01*
X148185143Y-106926095D01*
X148232762Y-106878476D01*
X148280381Y-106783238D01*
X148280381Y-106592761D01*
X148232762Y-106497523D01*
X148185143Y-106449904D01*
X148089905Y-106402285D01*
X147899429Y-106402285D01*
X147804190Y-106449904D01*
X147756571Y-106497523D01*
X147708952Y-106592761D01*
X147375619Y-99512191D02*
X147328000Y-99464572D01*
X147280381Y-99369334D01*
X147280381Y-99131238D01*
X147328000Y-99036000D01*
X147375619Y-98988381D01*
X147470857Y-98940762D01*
X147566095Y-98940762D01*
X147708952Y-98988381D01*
X148280381Y-99559810D01*
X148280381Y-98940762D01*
X147280381Y-98321715D02*
X147280381Y-98226476D01*
X147328000Y-98131238D01*
X147375619Y-98083619D01*
X147470857Y-98036000D01*
X147661333Y-97988381D01*
X147899429Y-97988381D01*
X148089905Y-98036000D01*
X148185143Y-98083619D01*
X148232762Y-98131238D01*
X148280381Y-98226476D01*
X148280381Y-98321715D01*
X148232762Y-98416953D01*
X148185143Y-98464572D01*
X148089905Y-98512191D01*
X147899429Y-98559810D01*
X147661333Y-98559810D01*
X147470857Y-98512191D01*
X147375619Y-98464572D01*
X147328000Y-98416953D01*
X147280381Y-98321715D01*
X147280381Y-97369334D02*
X147280381Y-97274095D01*
X147328000Y-97178857D01*
X147375619Y-97131238D01*
X147470857Y-97083619D01*
X147661333Y-97036000D01*
X147899429Y-97036000D01*
X148089905Y-97083619D01*
X148185143Y-97131238D01*
X148232762Y-97178857D01*
X148280381Y-97274095D01*
X148280381Y-97369334D01*
X148232762Y-97464572D01*
X148185143Y-97512191D01*
X148089905Y-97559810D01*
X147899429Y-97607429D01*
X147661333Y-97607429D01*
X147470857Y-97559810D01*
X147375619Y-97512191D01*
X147328000Y-97464572D01*
X147280381Y-97369334D01*
X147613714Y-96607429D02*
X148613714Y-96607429D01*
X147661333Y-96607429D02*
X147613714Y-96512191D01*
X147613714Y-96321714D01*
X147661333Y-96226476D01*
X147708952Y-96178857D01*
X147804190Y-96131238D01*
X148089905Y-96131238D01*
X148185143Y-96178857D01*
X148232762Y-96226476D01*
X148280381Y-96321714D01*
X148280381Y-96512191D01*
X148232762Y-96607429D01*
X147613714Y-95845524D02*
X147613714Y-95464572D01*
X148280381Y-95702667D02*
X147423238Y-95702667D01*
X147328000Y-95655048D01*
X147280381Y-95559810D01*
X147280381Y-95464572D01*
X148185143Y-107354666D02*
X148232762Y-107402285D01*
X148280381Y-107545142D01*
X148280381Y-107640380D01*
X148232762Y-107783238D01*
X148137524Y-107878476D01*
X148042286Y-107926095D01*
X147851810Y-107973714D01*
X147708952Y-107973714D01*
X147518476Y-107926095D01*
X147423238Y-107878476D01*
X147328000Y-107783238D01*
X147280381Y-107640380D01*
X147280381Y-107545142D01*
X147328000Y-107402285D01*
X147375619Y-107354666D01*
X147708952Y-106783238D02*
X147661333Y-106878476D01*
X147613714Y-106926095D01*
X147518476Y-106973714D01*
X147470857Y-106973714D01*
X147375619Y-106926095D01*
X147328000Y-106878476D01*
X147280381Y-106783238D01*
X147280381Y-106592761D01*
X147328000Y-106497523D01*
X147375619Y-106449904D01*
X147470857Y-106402285D01*
X147518476Y-106402285D01*
X147613714Y-106449904D01*
X147661333Y-106497523D01*
X147708952Y-106592761D01*
X147708952Y-106783238D01*
X147756571Y-106878476D01*
X147804190Y-106926095D01*
X147899429Y-106973714D01*
X148089905Y-106973714D01*
X148185143Y-106926095D01*
X148232762Y-106878476D01*
X148280381Y-106783238D01*
X148280381Y-106592761D01*
X148232762Y-106497523D01*
X148185143Y-106449904D01*
X148089905Y-106402285D01*
X147899429Y-106402285D01*
X147804190Y-106449904D01*
X147756571Y-106497523D01*
X147708952Y-106592761D01*
X150217143Y-107354666D02*
X150264762Y-107402285D01*
X150312381Y-107545142D01*
X150312381Y-107640380D01*
X150264762Y-107783238D01*
X150169524Y-107878476D01*
X150074286Y-107926095D01*
X149883810Y-107973714D01*
X149740952Y-107973714D01*
X149550476Y-107926095D01*
X149455238Y-107878476D01*
X149360000Y-107783238D01*
X149312381Y-107640380D01*
X149312381Y-107545142D01*
X149360000Y-107402285D01*
X149407619Y-107354666D01*
X150312381Y-106878476D02*
X150312381Y-106688000D01*
X150264762Y-106592761D01*
X150217143Y-106545142D01*
X150074286Y-106449904D01*
X149883810Y-106402285D01*
X149502857Y-106402285D01*
X149407619Y-106449904D01*
X149360000Y-106497523D01*
X149312381Y-106592761D01*
X149312381Y-106783238D01*
X149360000Y-106878476D01*
X149407619Y-106926095D01*
X149502857Y-106973714D01*
X149740952Y-106973714D01*
X149836190Y-106926095D01*
X149883810Y-106878476D01*
X149931429Y-106783238D01*
X149931429Y-106592761D01*
X149883810Y-106497523D01*
X149836190Y-106449904D01*
X149740952Y-106402285D01*
X149407619Y-99512191D02*
X149360000Y-99464572D01*
X149312381Y-99369334D01*
X149312381Y-99131238D01*
X149360000Y-99036000D01*
X149407619Y-98988381D01*
X149502857Y-98940762D01*
X149598095Y-98940762D01*
X149740952Y-98988381D01*
X150312381Y-99559810D01*
X150312381Y-98940762D01*
X149312381Y-98321715D02*
X149312381Y-98226476D01*
X149360000Y-98131238D01*
X149407619Y-98083619D01*
X149502857Y-98036000D01*
X149693333Y-97988381D01*
X149931429Y-97988381D01*
X150121905Y-98036000D01*
X150217143Y-98083619D01*
X150264762Y-98131238D01*
X150312381Y-98226476D01*
X150312381Y-98321715D01*
X150264762Y-98416953D01*
X150217143Y-98464572D01*
X150121905Y-98512191D01*
X149931429Y-98559810D01*
X149693333Y-98559810D01*
X149502857Y-98512191D01*
X149407619Y-98464572D01*
X149360000Y-98416953D01*
X149312381Y-98321715D01*
X149312381Y-97369334D02*
X149312381Y-97274095D01*
X149360000Y-97178857D01*
X149407619Y-97131238D01*
X149502857Y-97083619D01*
X149693333Y-97036000D01*
X149931429Y-97036000D01*
X150121905Y-97083619D01*
X150217143Y-97131238D01*
X150264762Y-97178857D01*
X150312381Y-97274095D01*
X150312381Y-97369334D01*
X150264762Y-97464572D01*
X150217143Y-97512191D01*
X150121905Y-97559810D01*
X149931429Y-97607429D01*
X149693333Y-97607429D01*
X149502857Y-97559810D01*
X149407619Y-97512191D01*
X149360000Y-97464572D01*
X149312381Y-97369334D01*
X149645714Y-96607429D02*
X150645714Y-96607429D01*
X149693333Y-96607429D02*
X149645714Y-96512191D01*
X149645714Y-96321714D01*
X149693333Y-96226476D01*
X149740952Y-96178857D01*
X149836190Y-96131238D01*
X150121905Y-96131238D01*
X150217143Y-96178857D01*
X150264762Y-96226476D01*
X150312381Y-96321714D01*
X150312381Y-96512191D01*
X150264762Y-96607429D01*
X149645714Y-95845524D02*
X149645714Y-95464572D01*
X150312381Y-95702667D02*
X149455238Y-95702667D01*
X149360000Y-95655048D01*
X149312381Y-95559810D01*
X149312381Y-95464572D01*
X150217143Y-107354666D02*
X150264762Y-107402285D01*
X150312381Y-107545142D01*
X150312381Y-107640380D01*
X150264762Y-107783238D01*
X150169524Y-107878476D01*
X150074286Y-107926095D01*
X149883810Y-107973714D01*
X149740952Y-107973714D01*
X149550476Y-107926095D01*
X149455238Y-107878476D01*
X149360000Y-107783238D01*
X149312381Y-107640380D01*
X149312381Y-107545142D01*
X149360000Y-107402285D01*
X149407619Y-107354666D01*
X150312381Y-106878476D02*
X150312381Y-106688000D01*
X150264762Y-106592761D01*
X150217143Y-106545142D01*
X150074286Y-106449904D01*
X149883810Y-106402285D01*
X149502857Y-106402285D01*
X149407619Y-106449904D01*
X149360000Y-106497523D01*
X149312381Y-106592761D01*
X149312381Y-106783238D01*
X149360000Y-106878476D01*
X149407619Y-106926095D01*
X149502857Y-106973714D01*
X149740952Y-106973714D01*
X149836190Y-106926095D01*
X149883810Y-106878476D01*
X149931429Y-106783238D01*
X149931429Y-106592761D01*
X149883810Y-106497523D01*
X149836190Y-106449904D01*
X149740952Y-106402285D01*
X152249143Y-107322857D02*
X152296762Y-107370476D01*
X152344381Y-107513333D01*
X152344381Y-107608571D01*
X152296762Y-107751429D01*
X152201524Y-107846667D01*
X152106286Y-107894286D01*
X151915810Y-107941905D01*
X151772952Y-107941905D01*
X151582476Y-107894286D01*
X151487238Y-107846667D01*
X151392000Y-107751429D01*
X151344381Y-107608571D01*
X151344381Y-107513333D01*
X151392000Y-107370476D01*
X151439619Y-107322857D01*
X152344381Y-106370476D02*
X152344381Y-106941905D01*
X152344381Y-106656191D02*
X151344381Y-106656191D01*
X151487238Y-106751429D01*
X151582476Y-106846667D01*
X151630095Y-106941905D01*
X151344381Y-105751429D02*
X151344381Y-105656190D01*
X151392000Y-105560952D01*
X151439619Y-105513333D01*
X151534857Y-105465714D01*
X151725333Y-105418095D01*
X151963429Y-105418095D01*
X152153905Y-105465714D01*
X152249143Y-105513333D01*
X152296762Y-105560952D01*
X152344381Y-105656190D01*
X152344381Y-105751429D01*
X152296762Y-105846667D01*
X152249143Y-105894286D01*
X152153905Y-105941905D01*
X151963429Y-105989524D01*
X151725333Y-105989524D01*
X151534857Y-105941905D01*
X151439619Y-105894286D01*
X151392000Y-105846667D01*
X151344381Y-105751429D01*
X151439619Y-99512191D02*
X151392000Y-99464572D01*
X151344381Y-99369334D01*
X151344381Y-99131238D01*
X151392000Y-99036000D01*
X151439619Y-98988381D01*
X151534857Y-98940762D01*
X151630095Y-98940762D01*
X151772952Y-98988381D01*
X152344381Y-99559810D01*
X152344381Y-98940762D01*
X151344381Y-98321715D02*
X151344381Y-98226476D01*
X151392000Y-98131238D01*
X151439619Y-98083619D01*
X151534857Y-98036000D01*
X151725333Y-97988381D01*
X151963429Y-97988381D01*
X152153905Y-98036000D01*
X152249143Y-98083619D01*
X152296762Y-98131238D01*
X152344381Y-98226476D01*
X152344381Y-98321715D01*
X152296762Y-98416953D01*
X152249143Y-98464572D01*
X152153905Y-98512191D01*
X151963429Y-98559810D01*
X151725333Y-98559810D01*
X151534857Y-98512191D01*
X151439619Y-98464572D01*
X151392000Y-98416953D01*
X151344381Y-98321715D01*
X151344381Y-97369334D02*
X151344381Y-97274095D01*
X151392000Y-97178857D01*
X151439619Y-97131238D01*
X151534857Y-97083619D01*
X151725333Y-97036000D01*
X151963429Y-97036000D01*
X152153905Y-97083619D01*
X152249143Y-97131238D01*
X152296762Y-97178857D01*
X152344381Y-97274095D01*
X152344381Y-97369334D01*
X152296762Y-97464572D01*
X152249143Y-97512191D01*
X152153905Y-97559810D01*
X151963429Y-97607429D01*
X151725333Y-97607429D01*
X151534857Y-97559810D01*
X151439619Y-97512191D01*
X151392000Y-97464572D01*
X151344381Y-97369334D01*
X151677714Y-96607429D02*
X152677714Y-96607429D01*
X151725333Y-96607429D02*
X151677714Y-96512191D01*
X151677714Y-96321714D01*
X151725333Y-96226476D01*
X151772952Y-96178857D01*
X151868190Y-96131238D01*
X152153905Y-96131238D01*
X152249143Y-96178857D01*
X152296762Y-96226476D01*
X152344381Y-96321714D01*
X152344381Y-96512191D01*
X152296762Y-96607429D01*
X151677714Y-95845524D02*
X151677714Y-95464572D01*
X152344381Y-95702667D02*
X151487238Y-95702667D01*
X151392000Y-95655048D01*
X151344381Y-95559810D01*
X151344381Y-95464572D01*
X152249143Y-107322857D02*
X152296762Y-107370476D01*
X152344381Y-107513333D01*
X152344381Y-107608571D01*
X152296762Y-107751429D01*
X152201524Y-107846667D01*
X152106286Y-107894286D01*
X151915810Y-107941905D01*
X151772952Y-107941905D01*
X151582476Y-107894286D01*
X151487238Y-107846667D01*
X151392000Y-107751429D01*
X151344381Y-107608571D01*
X151344381Y-107513333D01*
X151392000Y-107370476D01*
X151439619Y-107322857D01*
X152344381Y-106370476D02*
X152344381Y-106941905D01*
X152344381Y-106656191D02*
X151344381Y-106656191D01*
X151487238Y-106751429D01*
X151582476Y-106846667D01*
X151630095Y-106941905D01*
X151344381Y-105751429D02*
X151344381Y-105656190D01*
X151392000Y-105560952D01*
X151439619Y-105513333D01*
X151534857Y-105465714D01*
X151725333Y-105418095D01*
X151963429Y-105418095D01*
X152153905Y-105465714D01*
X152249143Y-105513333D01*
X152296762Y-105560952D01*
X152344381Y-105656190D01*
X152344381Y-105751429D01*
X152296762Y-105846667D01*
X152249143Y-105894286D01*
X152153905Y-105941905D01*
X151963429Y-105989524D01*
X151725333Y-105989524D01*
X151534857Y-105941905D01*
X151439619Y-105894286D01*
X151392000Y-105846667D01*
X151344381Y-105751429D01*
X138409762Y-116141333D02*
X138457381Y-115998476D01*
X138457381Y-115760380D01*
X138409762Y-115665142D01*
X138362143Y-115617523D01*
X138266905Y-115569904D01*
X138171667Y-115569904D01*
X138076429Y-115617523D01*
X138028810Y-115665142D01*
X137981190Y-115760380D01*
X137933571Y-115950857D01*
X137885952Y-116046095D01*
X137838333Y-116093714D01*
X137743095Y-116141333D01*
X137647857Y-116141333D01*
X137552619Y-116093714D01*
X137505000Y-116046095D01*
X137457381Y-115950857D01*
X137457381Y-115712761D01*
X137505000Y-115569904D01*
X137457381Y-115236571D02*
X138457381Y-114998476D01*
X137743095Y-114807999D01*
X138457381Y-114617523D01*
X137457381Y-114379428D01*
X138457381Y-113474666D02*
X138457381Y-114046095D01*
X138457381Y-113760381D02*
X137457381Y-113760381D01*
X137600238Y-113855619D01*
X137695476Y-113950857D01*
X137743095Y-114046095D01*
X151435952Y-119212762D02*
X151388333Y-119308000D01*
X151340714Y-119355619D01*
X151245476Y-119403238D01*
X151197857Y-119403238D01*
X151102619Y-119355619D01*
X151055000Y-119308000D01*
X151007381Y-119212762D01*
X151007381Y-119022285D01*
X151055000Y-118927047D01*
X151102619Y-118879428D01*
X151197857Y-118831809D01*
X151245476Y-118831809D01*
X151340714Y-118879428D01*
X151388333Y-118927047D01*
X151435952Y-119022285D01*
X151435952Y-119212762D01*
X151483571Y-119308000D01*
X151531190Y-119355619D01*
X151626429Y-119403238D01*
X151816905Y-119403238D01*
X151912143Y-119355619D01*
X151959762Y-119308000D01*
X152007381Y-119212762D01*
X152007381Y-119022285D01*
X151959762Y-118927047D01*
X151912143Y-118879428D01*
X151816905Y-118831809D01*
X151626429Y-118831809D01*
X151531190Y-118879428D01*
X151483571Y-118927047D01*
X151435952Y-119022285D01*
X152007381Y-118403238D02*
X151007381Y-118403238D01*
X151007381Y-118022285D01*
X151055000Y-117927047D01*
X151102619Y-117879428D01*
X151197857Y-117831809D01*
X151340714Y-117831809D01*
X151435952Y-117879428D01*
X151483571Y-117927047D01*
X151531190Y-118022285D01*
X151531190Y-118403238D01*
X152007381Y-117403238D02*
X151007381Y-117403238D01*
X152007381Y-116927048D02*
X151007381Y-116927048D01*
X152007381Y-116355619D01*
X151007381Y-116355619D01*
X152007381Y-115117524D02*
X151007381Y-115117524D01*
X151007381Y-114879429D01*
X151055000Y-114736571D01*
X151150238Y-114641333D01*
X151245476Y-114593714D01*
X151435952Y-114546095D01*
X151578810Y-114546095D01*
X151769286Y-114593714D01*
X151864524Y-114641333D01*
X151959762Y-114736571D01*
X152007381Y-114879429D01*
X152007381Y-115117524D01*
X152007381Y-114117524D02*
X151007381Y-114117524D01*
X152007381Y-113641334D02*
X151007381Y-113641334D01*
X151007381Y-113260381D01*
X151055000Y-113165143D01*
X151102619Y-113117524D01*
X151197857Y-113069905D01*
X151340714Y-113069905D01*
X151435952Y-113117524D01*
X151483571Y-113165143D01*
X151531190Y-113260381D01*
X151531190Y-113641334D01*
X151959762Y-111927048D02*
X152007381Y-111784191D01*
X152007381Y-111546095D01*
X151959762Y-111450857D01*
X151912143Y-111403238D01*
X151816905Y-111355619D01*
X151721667Y-111355619D01*
X151626429Y-111403238D01*
X151578810Y-111450857D01*
X151531190Y-111546095D01*
X151483571Y-111736572D01*
X151435952Y-111831810D01*
X151388333Y-111879429D01*
X151293095Y-111927048D01*
X151197857Y-111927048D01*
X151102619Y-111879429D01*
X151055000Y-111831810D01*
X151007381Y-111736572D01*
X151007381Y-111498476D01*
X151055000Y-111355619D01*
X151007381Y-111022286D02*
X152007381Y-110784191D01*
X151293095Y-110593714D01*
X152007381Y-110403238D01*
X151007381Y-110165143D01*
M02*
